<?xml version="1.0" encoding="UTF-8"?><svg id="a" xmlns="http://www.w3.org/2000/svg" viewBox="0 0 126.13 47.79"><defs><style>.b{fill:#ead511;}.c{fill:#1d1d1b;}</style></defs><g><g><g><path class="c" d="M6.09,.31c.78,0,1.42,.63,1.42,1.42v1.58h-2v.3h2v1.26c.14-.15,.24-.33,.31-.53V1.72c0-.95-.77-1.72-1.72-1.72-.7,0-1.3,.41-1.57,1.01-.1,.22-.15,.46-.15,.71h0v3.13c.14-.15,.24-.33,.31-.53h0V1.72h0c0-.78,.63-1.42,1.42-1.42Z"/><path class="c" d="M8.38,4.12V.98c-.14,.15-.24,.33-.31,.53h0v2.6h0c0,.78-.63,1.42-1.42,1.42h0c-.78,0-1.42-.63-1.42-1.42V.98c-.14,.15-.24,.33-.31,.53v2.6c0,.95,.77,1.72,1.72,1.72h0c.7,0,1.3-.41,1.57-1.01,.1-.22,.15-.46,.15-.71h0Z"/><path class="b" d="M8.38,0h-.31V.95c.08-.18,.18-.34,.31-.48v-.47Z"/></g><g><path class="c" d="M15.17,.31c.78,0,1.42,.63,1.42,1.42v1.58h-2v.3h2v1.26c.14-.15,.24-.33,.31-.53V1.72c0-.95-.77-1.72-1.72-1.72-.7,0-1.3,.41-1.57,1.01-.1,.22-.15,.46-.15,.71h0v3.13c.14-.15,.24-.33,.31-.53h0V1.72h0c0-.78,.63-1.42,1.42-1.42Z"/><path class="c" d="M17.47,4.12V.98c-.14,.15-.24,.33-.31,.53h0v2.6h0c0,.78-.63,1.42-1.42,1.42h0c-.78,0-1.42-.63-1.42-1.42V.98c-.14,.15-.24,.33-.31,.53v2.6c0,.95,.77,1.72,1.72,1.72h0c.7,0,1.3-.41,1.57-1.01,.1-.22,.15-.46,.15-.71h0Z"/><path class="b" d="M17.47,0h-.31V.95c.08-.18,.18-.34,.31-.48v-.47Z"/></g><g><path class="c" d="M24.26,.31c.78,0,1.42,.63,1.42,1.42v1.58h-2v.3h2v1.26c.14-.15,.24-.33,.31-.53V1.72c0-.95-.77-1.72-1.72-1.72-.7,0-1.3,.41-1.57,1.01-.1,.22-.15,.46-.15,.71h0v3.13c.14-.15,.24-.33,.31-.53h0V1.72h0c0-.78,.63-1.42,1.42-1.42Z"/><path class="c" d="M26.56,4.12V.98c-.14,.15-.24,.33-.31,.53h0v2.6h0c0,.78-.63,1.42-1.42,1.42h0c-.78,0-1.42-.63-1.42-1.42V.98c-.14,.15-.24,.33-.31,.53v2.6c0,.95,.77,1.72,1.72,1.72h0c.7,0,1.3-.41,1.57-1.01,.1-.22,.15-.46,.15-.71h0Z"/><path class="b" d="M26.56,0h-.31V.95c.08-.18,.18-.34,.31-.48v-.47Z"/></g><g><path class="c" d="M33.35,.31c.78,0,1.42,.63,1.42,1.42v1.58h-2v.3h2v1.26c.14-.15,.24-.33,.31-.53V1.72c0-.95-.77-1.72-1.72-1.72-.7,0-1.3,.41-1.57,1.01-.1,.22-.15,.46-.15,.71h0v3.13c.14-.15,.24-.33,.31-.53h0V1.72h0c0-.78,.63-1.42,1.42-1.42Z"/><path class="c" d="M35.64,4.12V.98c-.14,.15-.24,.33-.31,.53h0v2.6h0c0,.78-.63,1.42-1.42,1.42h0c-.78,0-1.42-.63-1.42-1.42V.98c-.14,.15-.24,.33-.31,.53v2.6c0,.95,.77,1.72,1.72,1.72h0c.7,0,1.3-.41,1.57-1.01,.1-.22,.15-.46,.15-.71h0Z"/><path class="b" d="M35.65,0h-.31V.95c.08-.18,.18-.34,.31-.48v-.47Z"/></g><g><path class="c" d="M42.44,.31c.78,0,1.42,.63,1.42,1.42v1.58h-2v.3h2v1.26c.14-.15,.24-.33,.31-.53V1.72c0-.95-.77-1.72-1.72-1.72-.7,0-1.3,.41-1.57,1.01-.1,.22-.15,.46-.15,.71h0v3.13c.14-.15,.24-.33,.31-.53h0V1.72h0c0-.78,.63-1.42,1.42-1.42Z"/><path class="c" d="M44.73,4.12V.98c-.14,.15-.24,.33-.31,.53h0v2.6h0c0,.78-.63,1.42-1.42,1.42h0c-.78,0-1.42-.63-1.42-1.42V.98c-.14,.15-.24,.33-.31,.53v2.6c0,.95,.77,1.72,1.72,1.72h0c.7,0,1.3-.41,1.57-1.01,.1-.22,.15-.46,.15-.71h0Z"/><path class="b" d="M44.73,0h-.31V.95c.08-.18,.18-.34,.31-.48v-.47Z"/></g><g><path class="c" d="M51.53,.31c.78,0,1.42,.63,1.42,1.42v1.58h-2v.3h2v1.26c.14-.15,.24-.33,.31-.53V1.72c0-.95-.77-1.72-1.72-1.72-.7,0-1.3,.41-1.57,1.01-.1,.22-.15,.46-.15,.71h0v3.13c.14-.15,.24-.33,.31-.53h0V1.72h0c0-.78,.63-1.42,1.42-1.42Z"/><path class="c" d="M53.82,4.12V.98c-.14,.15-.24,.33-.31,.53h0v2.6h0c0,.78-.63,1.42-1.42,1.42h0c-.78,0-1.42-.63-1.42-1.42V.98c-.14,.15-.24,.33-.31,.53v2.6c0,.95,.77,1.72,1.72,1.72h0c.7,0,1.3-.41,1.57-1.01,.1-.22,.15-.46,.15-.71h0Z"/><path class="b" d="M53.82,0h-.31V.95c.08-.18,.18-.34,.31-.48v-.47Z"/></g><g><path class="c" d="M60.62,.31c.78,0,1.42,.63,1.42,1.42v1.58h-2v.3h2v1.26c.14-.15,.24-.33,.31-.53V1.72c0-.95-.77-1.72-1.72-1.72-.7,0-1.3,.41-1.57,1.01-.1,.22-.15,.46-.15,.71h0v3.13c.14-.15,.24-.33,.31-.53h0V1.72h0c0-.78,.63-1.42,1.42-1.42Z"/><path class="c" d="M62.91,4.12V.98c-.14,.15-.24,.33-.31,.53h0v2.6h0c0,.78-.63,1.42-1.42,1.42h0c-.78,0-1.42-.63-1.42-1.42V.98c-.14,.15-.24,.33-.31,.53v2.6c0,.95,.77,1.72,1.72,1.72h0c.7,0,1.3-.41,1.57-1.01,.1-.22,.15-.46,.15-.71h0Z"/><path class="b" d="M62.91,0h-.31V.95c.08-.18,.18-.34,.31-.48v-.47Z"/></g></g><g><g><path class="c" d="M1.72,6.15c.78,0,1.42,.63,1.42,1.42v1.58H1.14v.3H3.14v1.26c.14-.15,.24-.33,.31-.53v-2.6c0-.95-.77-1.72-1.72-1.72-.7,0-1.3,.41-1.57,1.01-.1,.22-.15,.46-.15,.71H0v3.13c.14-.15,.24-.33,.31-.53h0v-2.6h0c0-.78,.63-1.42,1.42-1.42Z"/><path class="c" d="M4.02,9.95v-3.13c-.14,.15-.24,.33-.31,.53h0v2.6h0c0,.78-.63,1.42-1.42,1.42h0c-.78,0-1.42-.63-1.42-1.42v-3.13c-.14,.15-.24,.33-.31,.53v2.6c0,.95,.77,1.72,1.72,1.72h0c.7,0,1.3-.41,1.57-1.01,.1-.22,.15-.46,.15-.71h0Z"/><path class="b" d="M4.02,5.84h-.31v.95c.08-.18,.18-.34,.31-.48v-.47Z"/></g><g><path class="c" d="M10.81,6.15c.78,0,1.42,.63,1.42,1.42v1.58h-2v.3h2v1.26c.14-.15,.24-.33,.31-.53v-2.6c0-.95-.77-1.72-1.72-1.72-.7,0-1.3,.41-1.57,1.01-.1,.22-.15,.46-.15,.71h0v3.13c.14-.15,.24-.33,.31-.53h0v-2.6h0c0-.78,.63-1.42,1.42-1.42Z"/><path class="c" d="M13.11,9.95v-3.13c-.14,.15-.24,.33-.31,.53h0v2.6h0c0,.78-.63,1.42-1.42,1.42h0c-.78,0-1.42-.63-1.42-1.42v-3.13c-.14,.15-.24,.33-.31,.53v2.6c0,.95,.77,1.72,1.72,1.72h0c.7,0,1.3-.41,1.57-1.01,.1-.22,.15-.46,.15-.71h0Z"/><path class="b" d="M13.11,5.84h-.31v.95c.08-.18,.18-.34,.31-.48v-.47Z"/></g><g><path class="c" d="M19.9,6.15c.78,0,1.42,.63,1.42,1.42v1.58h-2v.3h2v1.26c.14-.15,.24-.33,.31-.53v-2.6c0-.95-.77-1.72-1.72-1.72-.7,0-1.3,.41-1.57,1.01-.1,.22-.15,.46-.15,.71h0v3.13c.14-.15,.24-.33,.31-.53h0v-2.6h0c0-.78,.63-1.42,1.42-1.42Z"/><path class="c" d="M22.2,9.95v-3.13c-.14,.15-.24,.33-.31,.53h0v2.6h0c0,.78-.63,1.42-1.42,1.42h0c-.78,0-1.42-.63-1.42-1.42v-3.13c-.14,.15-.24,.33-.31,.53v2.6c0,.95,.77,1.72,1.72,1.72h0c.7,0,1.3-.41,1.57-1.01,.1-.22,.15-.46,.15-.71h0Z"/><path class="b" d="M22.2,5.84h-.31v.95c.08-.18,.18-.34,.31-.48v-.47Z"/></g><g><path class="c" d="M28.99,6.15c.78,0,1.42,.63,1.42,1.42v1.58h-2v.3h2v1.26c.14-.15,.24-.33,.31-.53v-2.6c0-.95-.77-1.72-1.72-1.72-.7,0-1.3,.41-1.57,1.01-.1,.22-.15,.46-.15,.71h0v3.13c.14-.15,.24-.33,.31-.53h0v-2.6h0c0-.78,.63-1.42,1.42-1.42Z"/><path class="c" d="M31.28,9.95v-3.13c-.14,.15-.24,.33-.31,.53h0v2.6h0c0,.78-.63,1.42-1.42,1.42h0c-.78,0-1.42-.63-1.42-1.42v-3.13c-.14,.15-.24,.33-.31,.53v2.6c0,.95,.77,1.72,1.72,1.72h0c.7,0,1.3-.41,1.57-1.01,.1-.22,.15-.46,.15-.71h0Z"/><path class="b" d="M31.28,5.84h-.31v.95c.08-.18,.18-.34,.31-.48v-.47Z"/></g><g><path class="c" d="M38.08,6.15c.78,0,1.42,.63,1.42,1.42v1.58h-2v.3h2v1.26c.14-.15,.24-.33,.31-.53v-2.6c0-.95-.77-1.72-1.72-1.72-.7,0-1.3,.41-1.57,1.01-.1,.22-.15,.46-.15,.71h0v3.13c.14-.15,.24-.33,.31-.53h0v-2.6h0c0-.78,.63-1.42,1.42-1.42Z"/><path class="c" d="M40.37,9.95v-3.13c-.14,.15-.24,.33-.31,.53h0v2.6h0c0,.78-.63,1.42-1.42,1.42h0c-.78,0-1.42-.63-1.42-1.42v-3.13c-.14,.15-.24,.33-.31,.53v2.6c0,.95,.77,1.72,1.72,1.72h0c.7,0,1.3-.41,1.57-1.01,.1-.22,.15-.46,.15-.71h0Z"/><path class="b" d="M40.37,5.84h-.31v.95c.08-.18,.18-.34,.31-.48v-.47Z"/></g><g><path class="c" d="M47.17,6.15c.78,0,1.42,.63,1.42,1.42v1.58h-2v.3h2v1.26c.14-.15,.24-.33,.31-.53v-2.6c0-.95-.77-1.72-1.72-1.72-.7,0-1.3,.41-1.57,1.01-.1,.22-.15,.46-.15,.71h0v3.13c.14-.15,.24-.33,.31-.53h0v-2.6h0c0-.78,.63-1.42,1.42-1.42Z"/><path class="c" d="M49.46,9.95v-3.13c-.14,.15-.24,.33-.31,.53h0v2.6h0c0,.78-.63,1.42-1.42,1.42h0c-.78,0-1.42-.63-1.42-1.42v-3.13c-.14,.15-.24,.33-.31,.53v2.6c0,.95,.77,1.72,1.72,1.72h0c.7,0,1.3-.41,1.57-1.01,.1-.22,.15-.46,.15-.71h0Z"/><path class="b" d="M49.46,5.84h-.31v.95c.08-.18,.18-.34,.31-.48v-.47Z"/></g><g><path class="c" d="M56.26,6.15c.78,0,1.42,.63,1.42,1.42v1.58h-2v.3h2v1.26c.14-.15,.24-.33,.31-.53v-2.6c0-.95-.77-1.72-1.72-1.72-.7,0-1.3,.41-1.57,1.01-.1,.22-.15,.46-.15,.71h0v3.13c.14-.15,.24-.33,.31-.53h0v-2.6h0c0-.78,.63-1.42,1.42-1.42Z"/><path class="c" d="M58.55,9.95v-3.13c-.14,.15-.24,.33-.31,.53h0v2.6h0c0,.78-.63,1.42-1.42,1.42h0c-.78,0-1.42-.63-1.42-1.42v-3.13c-.14,.15-.24,.33-.31,.53v2.6c0,.95,.77,1.72,1.72,1.72h0c.7,0,1.3-.41,1.57-1.01,.1-.22,.15-.46,.15-.71h0Z"/><path class="b" d="M58.55,5.84h-.31v.95c.08-.18,.18-.34,.31-.48v-.47Z"/></g></g></g><g><g><g><path class="c" d="M6.09,11.99c.78,0,1.42,.63,1.42,1.42v1.58h-2v.3h2v1.26c.14-.15,.24-.33,.31-.53v-2.6c0-.95-.77-1.72-1.72-1.72-.7,0-1.3,.41-1.57,1.01-.1,.22-.15,.46-.15,.71h0v3.13c.14-.15,.24-.33,.31-.53h0v-2.6h0c0-.78,.63-1.42,1.42-1.42Z"/><path class="c" d="M8.38,15.79v-3.13c-.14,.15-.24,.33-.31,.53h0v2.6h0c0,.78-.63,1.42-1.42,1.42h0c-.78,0-1.42-.63-1.42-1.42v-3.13c-.14,.15-.24,.33-.31,.53v2.6c0,.95,.77,1.72,1.72,1.72h0c.7,0,1.3-.41,1.57-1.01,.1-.22,.15-.46,.15-.71h0Z"/><path class="b" d="M8.38,11.68h-.31v.95c.08-.18,.18-.34,.31-.48v-.47Z"/></g><g><path class="c" d="M15.17,11.99c.78,0,1.42,.63,1.42,1.42v1.58h-2v.3h2v1.26c.14-.15,.24-.33,.31-.53v-2.6c0-.95-.77-1.72-1.72-1.72-.7,0-1.3,.41-1.57,1.01-.1,.22-.15,.46-.15,.71h0v3.13c.14-.15,.24-.33,.31-.53h0v-2.6h0c0-.78,.63-1.42,1.42-1.42Z"/><path class="c" d="M17.47,15.79v-3.13c-.14,.15-.24,.33-.31,.53h0v2.6h0c0,.78-.63,1.42-1.42,1.42h0c-.78,0-1.42-.63-1.42-1.42v-3.13c-.14,.15-.24,.33-.31,.53v2.6c0,.95,.77,1.72,1.72,1.72h0c.7,0,1.3-.41,1.57-1.01,.1-.22,.15-.46,.15-.71h0Z"/><path class="b" d="M17.47,11.68h-.31v.95c.08-.18,.18-.34,.31-.48v-.47Z"/></g><g><path class="c" d="M24.26,11.99c.78,0,1.42,.63,1.42,1.42v1.58h-2v.3h2v1.26c.14-.15,.24-.33,.31-.53v-2.6c0-.95-.77-1.72-1.72-1.72-.7,0-1.3,.41-1.57,1.01-.1,.22-.15,.46-.15,.71h0v3.13c.14-.15,.24-.33,.31-.53h0v-2.6h0c0-.78,.63-1.42,1.42-1.42Z"/><path class="c" d="M26.56,15.79v-3.13c-.14,.15-.24,.33-.31,.53h0v2.6h0c0,.78-.63,1.42-1.42,1.42h0c-.78,0-1.42-.63-1.42-1.42v-3.13c-.14,.15-.24,.33-.31,.53v2.6c0,.95,.77,1.72,1.72,1.72h0c.7,0,1.3-.41,1.57-1.01,.1-.22,.15-.46,.15-.71h0Z"/><path class="b" d="M26.56,11.68h-.31v.95c.08-.18,.18-.34,.31-.48v-.47Z"/></g><g><path class="c" d="M33.35,11.99c.78,0,1.42,.63,1.42,1.42v1.58h-2v.3h2v1.26c.14-.15,.24-.33,.31-.53v-2.6c0-.95-.77-1.72-1.72-1.72-.7,0-1.3,.41-1.57,1.01-.1,.22-.15,.46-.15,.71h0v3.13c.14-.15,.24-.33,.31-.53h0v-2.6h0c0-.78,.63-1.42,1.42-1.42Z"/><path class="c" d="M35.64,15.79v-3.13c-.14,.15-.24,.33-.31,.53h0v2.6h0c0,.78-.63,1.42-1.42,1.42h0c-.78,0-1.42-.63-1.42-1.42v-3.13c-.14,.15-.24,.33-.31,.53v2.6c0,.95,.77,1.72,1.72,1.72h0c.7,0,1.3-.41,1.57-1.01,.1-.22,.15-.46,.15-.71h0Z"/><path class="b" d="M35.65,11.68h-.31v.95c.08-.18,.18-.34,.31-.48v-.47Z"/></g><g><path class="c" d="M42.44,11.99c.78,0,1.42,.63,1.42,1.42v1.58h-2v.3h2v1.26c.14-.15,.24-.33,.31-.53v-2.6c0-.95-.77-1.72-1.72-1.72-.7,0-1.3,.41-1.57,1.01-.1,.22-.15,.46-.15,.71h0v3.13c.14-.15,.24-.33,.31-.53h0v-2.6h0c0-.78,.63-1.42,1.42-1.42Z"/><path class="c" d="M44.73,15.79v-3.13c-.14,.15-.24,.33-.31,.53h0v2.6h0c0,.78-.63,1.42-1.42,1.42h0c-.78,0-1.42-.63-1.42-1.42v-3.13c-.14,.15-.24,.33-.31,.53v2.6c0,.95,.77,1.72,1.72,1.72h0c.7,0,1.3-.41,1.57-1.01,.1-.22,.15-.46,.15-.71h0Z"/><path class="b" d="M44.73,11.68h-.31v.95c.08-.18,.18-.34,.31-.48v-.47Z"/></g><g><path class="c" d="M51.53,11.99c.78,0,1.42,.63,1.42,1.42v1.58h-2v.3h2v1.26c.14-.15,.24-.33,.31-.53v-2.6c0-.95-.77-1.72-1.72-1.72-.7,0-1.3,.41-1.57,1.01-.1,.22-.15,.46-.15,.71h0v3.13c.14-.15,.24-.33,.31-.53h0v-2.6h0c0-.78,.63-1.42,1.42-1.42Z"/><path class="c" d="M53.82,15.79v-3.13c-.14,.15-.24,.33-.31,.53h0v2.6h0c0,.78-.63,1.42-1.42,1.42h0c-.78,0-1.42-.63-1.42-1.42v-3.13c-.14,.15-.24,.33-.31,.53v2.6c0,.95,.77,1.72,1.72,1.72h0c.7,0,1.3-.41,1.57-1.01,.1-.22,.15-.46,.15-.71h0Z"/><path class="b" d="M53.82,11.68h-.31v.95c.08-.18,.18-.34,.31-.48v-.47Z"/></g><g><path class="c" d="M60.62,11.99c.78,0,1.42,.63,1.42,1.42v1.58h-2v.3h2v1.26c.14-.15,.24-.33,.31-.53v-2.6c0-.95-.77-1.72-1.72-1.72-.7,0-1.3,.41-1.57,1.01-.1,.22-.15,.46-.15,.71h0v3.13c.14-.15,.24-.33,.31-.53h0v-2.6h0c0-.78,.63-1.42,1.42-1.42Z"/><path class="c" d="M62.91,15.79v-3.13c-.14,.15-.24,.33-.31,.53h0v2.6h0c0,.78-.63,1.42-1.42,1.42h0c-.78,0-1.42-.63-1.42-1.42v-3.13c-.14,.15-.24,.33-.31,.53v2.6c0,.95,.77,1.72,1.72,1.72h0c.7,0,1.3-.41,1.57-1.01,.1-.22,.15-.46,.15-.71h0Z"/><path class="b" d="M62.91,11.68h-.31v.95c.08-.18,.18-.34,.31-.48v-.47Z"/></g></g><g><g><path class="c" d="M1.72,17.83c.78,0,1.42,.63,1.42,1.42v1.58H1.14v.3H3.14v1.26c.14-.15,.24-.33,.31-.53v-2.6c0-.95-.77-1.72-1.72-1.72-.7,0-1.3,.41-1.57,1.01-.1,.22-.15,.46-.15,.71H0v3.13c.14-.15,.24-.33,.31-.53h0v-2.6h0c0-.78,.63-1.42,1.42-1.42Z"/><path class="c" d="M4.02,21.63v-3.13c-.14,.15-.24,.33-.31,.53h0v2.6h0c0,.78-.63,1.42-1.42,1.42h0c-.78,0-1.42-.63-1.42-1.42v-3.13c-.14,.15-.24,.33-.31,.53v2.6c0,.95,.77,1.72,1.72,1.72h0c.7,0,1.3-.41,1.57-1.01,.1-.22,.15-.46,.15-.71h0Z"/><path class="b" d="M4.02,17.52h-.31v.95c.08-.18,.18-.34,.31-.48v-.47Z"/></g><g><path class="c" d="M10.81,17.83c.78,0,1.42,.63,1.42,1.42v1.58h-2v.3h2v1.26c.14-.15,.24-.33,.31-.53v-2.6c0-.95-.77-1.72-1.72-1.72-.7,0-1.3,.41-1.57,1.01-.1,.22-.15,.46-.15,.71h0v3.13c.14-.15,.24-.33,.31-.53h0v-2.6h0c0-.78,.63-1.42,1.42-1.42Z"/><path class="c" d="M13.11,21.63v-3.13c-.14,.15-.24,.33-.31,.53h0v2.6h0c0,.78-.63,1.42-1.42,1.42h0c-.78,0-1.42-.63-1.42-1.42v-3.13c-.14,.15-.24,.33-.31,.53v2.6c0,.95,.77,1.72,1.72,1.72h0c.7,0,1.3-.41,1.57-1.01,.1-.22,.15-.46,.15-.71h0Z"/><path class="b" d="M13.11,17.52h-.31v.95c.08-.18,.18-.34,.31-.48v-.47Z"/></g><g><path class="c" d="M19.9,17.83c.78,0,1.42,.63,1.42,1.42v1.58h-2v.3h2v1.26c.14-.15,.24-.33,.31-.53v-2.6c0-.95-.77-1.72-1.72-1.72-.7,0-1.3,.41-1.57,1.01-.1,.22-.15,.46-.15,.71h0v3.13c.14-.15,.24-.33,.31-.53h0v-2.6h0c0-.78,.63-1.42,1.42-1.42Z"/><path class="c" d="M22.2,21.63v-3.13c-.14,.15-.24,.33-.31,.53h0v2.6h0c0,.78-.63,1.42-1.42,1.42h0c-.78,0-1.42-.63-1.42-1.42v-3.13c-.14,.15-.24,.33-.31,.53v2.6c0,.95,.77,1.72,1.72,1.72h0c.7,0,1.3-.41,1.57-1.01,.1-.22,.15-.46,.15-.71h0Z"/><path class="b" d="M22.2,17.52h-.31v.95c.08-.18,.18-.34,.31-.48v-.47Z"/></g><g><path class="c" d="M28.99,17.83c.78,0,1.42,.63,1.42,1.42v1.58h-2v.3h2v1.26c.14-.15,.24-.33,.31-.53v-2.6c0-.95-.77-1.72-1.72-1.72-.7,0-1.3,.41-1.57,1.01-.1,.22-.15,.46-.15,.71h0v3.13c.14-.15,.24-.33,.31-.53h0v-2.6h0c0-.78,.63-1.42,1.42-1.42Z"/><path class="c" d="M31.28,21.63v-3.13c-.14,.15-.24,.33-.31,.53h0v2.6h0c0,.78-.63,1.42-1.42,1.42h0c-.78,0-1.42-.63-1.42-1.42v-3.13c-.14,.15-.24,.33-.31,.53v2.6c0,.95,.77,1.72,1.72,1.72h0c.7,0,1.3-.41,1.57-1.01,.1-.22,.15-.46,.15-.71h0Z"/><path class="b" d="M31.28,17.52h-.31v.95c.08-.18,.18-.34,.31-.48v-.47Z"/></g><g><path class="c" d="M38.08,17.83c.78,0,1.42,.63,1.42,1.42v1.58h-2v.3h2v1.26c.14-.15,.24-.33,.31-.53v-2.6c0-.95-.77-1.72-1.72-1.72-.7,0-1.3,.41-1.57,1.01-.1,.22-.15,.46-.15,.71h0v3.13c.14-.15,.24-.33,.31-.53h0v-2.6h0c0-.78,.63-1.42,1.42-1.42Z"/><path class="c" d="M40.37,21.63v-3.13c-.14,.15-.24,.33-.31,.53h0v2.6h0c0,.78-.63,1.42-1.42,1.42h0c-.78,0-1.42-.63-1.42-1.42v-3.13c-.14,.15-.24,.33-.31,.53v2.6c0,.95,.77,1.72,1.72,1.72h0c.7,0,1.3-.41,1.57-1.01,.1-.22,.15-.46,.15-.71h0Z"/><path class="b" d="M40.37,17.52h-.31v.95c.08-.18,.18-.34,.31-.48v-.47Z"/></g><g><path class="c" d="M47.17,17.83c.78,0,1.42,.63,1.42,1.42v1.58h-2v.3h2v1.26c.14-.15,.24-.33,.31-.53v-2.6c0-.95-.77-1.72-1.72-1.72-.7,0-1.3,.41-1.57,1.01-.1,.22-.15,.46-.15,.71h0v3.13c.14-.15,.24-.33,.31-.53h0v-2.6h0c0-.78,.63-1.42,1.42-1.42Z"/><path class="c" d="M49.46,21.63v-3.13c-.14,.15-.24,.33-.31,.53h0v2.6h0c0,.78-.63,1.42-1.42,1.42h0c-.78,0-1.42-.63-1.42-1.42v-3.13c-.14,.15-.24,.33-.31,.53v2.6c0,.95,.77,1.72,1.72,1.72h0c.7,0,1.3-.41,1.57-1.01,.1-.22,.15-.46,.15-.71h0Z"/><path class="b" d="M49.46,17.52h-.31v.95c.08-.18,.18-.34,.31-.48v-.47Z"/></g><g><path class="c" d="M56.26,17.83c.78,0,1.42,.63,1.42,1.42v1.58h-2v.3h2v1.26c.14-.15,.24-.33,.31-.53v-2.6c0-.95-.77-1.72-1.72-1.72-.7,0-1.3,.41-1.57,1.01-.1,.22-.15,.46-.15,.71h0v3.13c.14-.15,.24-.33,.31-.53h0v-2.6h0c0-.78,.63-1.42,1.42-1.42Z"/><path class="c" d="M58.55,21.63v-3.13c-.14,.15-.24,.33-.31,.53h0v2.6h0c0,.78-.63,1.42-1.42,1.42h0c-.78,0-1.42-.63-1.42-1.42v-3.13c-.14,.15-.24,.33-.31,.53v2.6c0,.95,.77,1.72,1.72,1.72h0c.7,0,1.3-.41,1.57-1.01,.1-.22,.15-.46,.15-.71h0Z"/><path class="b" d="M58.55,17.52h-.31v.95c.08-.18,.18-.34,.31-.48v-.47Z"/></g></g></g><g><g><g><path class="c" d="M69,.31c.78,0,1.42,.63,1.42,1.42v1.58h-2v.3h2v1.26c.14-.15,.24-.33,.31-.53V1.72c0-.95-.77-1.72-1.72-1.72-.7,0-1.3,.41-1.57,1.01-.1,.22-.15,.46-.15,.71h0v3.13c.14-.15,.24-.33,.31-.53h0V1.72h0c0-.78,.63-1.42,1.42-1.42Z"/><path class="c" d="M71.29,4.12V.98c-.14,.15-.24,.33-.31,.53h0v2.6h0c0,.78-.63,1.42-1.42,1.42h0c-.78,0-1.42-.63-1.42-1.42V.98c-.14,.15-.24,.33-.31,.53v2.6c0,.95,.77,1.72,1.72,1.72h0c.7,0,1.3-.41,1.57-1.01,.1-.22,.15-.46,.15-.71h0Z"/><path class="b" d="M71.29,0h-.31V.95c.08-.18,.18-.34,.31-.48v-.47Z"/></g><g><path class="c" d="M78.09,.31c.78,0,1.42,.63,1.42,1.42v1.58h-2v.3h2v1.26c.14-.15,.24-.33,.31-.53V1.72c0-.95-.77-1.72-1.72-1.72-.7,0-1.3,.41-1.57,1.01-.1,.22-.15,.46-.15,.71h0v3.13c.14-.15,.24-.33,.31-.53h0V1.72h0c0-.78,.63-1.42,1.42-1.42Z"/><path class="c" d="M80.38,4.12V.98c-.14,.15-.24,.33-.31,.53h0v2.6h0c0,.78-.63,1.42-1.42,1.42h0c-.78,0-1.42-.63-1.42-1.42V.98c-.14,.15-.24,.33-.31,.53v2.6c0,.95,.77,1.72,1.72,1.72h0c.7,0,1.3-.41,1.57-1.01,.1-.22,.15-.46,.15-.71h0Z"/><path class="b" d="M80.38,0h-.31V.95c.08-.18,.18-.34,.31-.48v-.47Z"/></g><g><path class="c" d="M87.17,.31c.78,0,1.42,.63,1.42,1.42v1.58h-2v.3h2v1.26c.14-.15,.24-.33,.31-.53V1.72c0-.95-.77-1.72-1.72-1.72-.7,0-1.3,.41-1.57,1.01-.1,.22-.15,.46-.15,.71h0v3.13c.14-.15,.24-.33,.31-.53h0V1.72h0c0-.78,.63-1.42,1.42-1.42Z"/><path class="c" d="M89.47,4.12V.98c-.14,.15-.24,.33-.31,.53h0v2.6h0c0,.78-.63,1.42-1.42,1.42h0c-.78,0-1.42-.63-1.42-1.42V.98c-.14,.15-.24,.33-.31,.53v2.6c0,.95,.77,1.72,1.72,1.72h0c.7,0,1.3-.41,1.57-1.01,.1-.22,.15-.46,.15-.71h0Z"/><path class="b" d="M89.47,0h-.31V.95c.08-.18,.18-.34,.31-.48v-.47Z"/></g><g><path class="c" d="M96.26,.31c.78,0,1.42,.63,1.42,1.42v1.58h-2v.3h2v1.26c.14-.15,.24-.33,.31-.53V1.72c0-.95-.77-1.72-1.72-1.72-.7,0-1.3,.41-1.57,1.01-.1,.22-.15,.46-.15,.71h0v3.13c.14-.15,.24-.33,.31-.53h0V1.72h0c0-.78,.63-1.42,1.42-1.42Z"/><path class="c" d="M98.56,4.12V.98c-.14,.15-.24,.33-.31,.53h0v2.6h0c0,.78-.63,1.42-1.42,1.42h0c-.78,0-1.42-.63-1.42-1.42V.98c-.14,.15-.24,.33-.31,.53v2.6c0,.95,.77,1.72,1.72,1.72h0c.7,0,1.3-.41,1.57-1.01,.1-.22,.15-.46,.15-.71h0Z"/><path class="b" d="M98.56,0h-.31V.95c.08-.18,.18-.34,.31-.48v-.47Z"/></g><g><path class="c" d="M105.35,.31c.78,0,1.42,.63,1.42,1.42v1.58h-2v.3h2v1.26c.14-.15,.24-.33,.31-.53V1.72c0-.95-.77-1.72-1.72-1.72-.7,0-1.3,.41-1.57,1.01-.1,.22-.15,.46-.15,.71h0v3.13c.14-.15,.24-.33,.31-.53h0V1.72h0c0-.78,.63-1.42,1.42-1.42Z"/><path class="c" d="M107.65,4.12V.98c-.14,.15-.24,.33-.31,.53h0v2.6h0c0,.78-.63,1.42-1.42,1.42h0c-.78,0-1.42-.63-1.42-1.42V.98c-.14,.15-.24,.33-.31,.53v2.6c0,.95,.77,1.72,1.72,1.72h0c.7,0,1.3-.41,1.57-1.01,.1-.22,.15-.46,.15-.71h0Z"/><path class="b" d="M107.65,0h-.31V.95c.08-.18,.18-.34,.31-.48v-.47Z"/></g><g><path class="c" d="M114.44,.31c.78,0,1.42,.63,1.42,1.42v1.58h-2v.3h2v1.26c.14-.15,.24-.33,.31-.53V1.72c0-.95-.77-1.72-1.72-1.72-.7,0-1.3,.41-1.57,1.01-.1,.22-.15,.46-.15,.71h0v3.13c.14-.15,.24-.33,.31-.53h0V1.72h0c0-.78,.63-1.42,1.42-1.42Z"/><path class="c" d="M116.73,4.12V.98c-.14,.15-.24,.33-.31,.53h0v2.6h0c0,.78-.63,1.42-1.42,1.42h0c-.78,0-1.42-.63-1.42-1.42V.98c-.14,.15-.24,.33-.31,.53v2.6c0,.95,.77,1.72,1.72,1.72h0c.7,0,1.3-.41,1.57-1.01,.1-.22,.15-.46,.15-.71h0Z"/><path class="b" d="M116.73,0h-.31V.95c.08-.18,.18-.34,.31-.48v-.47Z"/></g><g><path class="c" d="M123.53,.31c.78,0,1.42,.63,1.42,1.42v1.58h-2v.3h2v1.26c.14-.15,.24-.33,.31-.53V1.72c0-.95-.77-1.72-1.72-1.72-.7,0-1.3,.41-1.57,1.01-.1,.22-.15,.46-.15,.71h0v3.13c.14-.15,.24-.33,.31-.53h0V1.72h0c0-.78,.63-1.42,1.42-1.42Z"/><path class="c" d="M125.82,4.12V.98c-.14,.15-.24,.33-.31,.53h0v2.6h0c0,.78-.63,1.42-1.42,1.42h0c-.78,0-1.42-.63-1.42-1.42V.98c-.14,.15-.24,.33-.31,.53v2.6c0,.95,.77,1.72,1.72,1.72h0c.7,0,1.3-.41,1.57-1.01,.1-.22,.15-.46,.15-.71h0Z"/><path class="b" d="M125.82,0h-.31V.95c.08-.18,.18-.34,.31-.48v-.47Z"/></g></g><g><g><path class="c" d="M64.64,6.15c.78,0,1.42,.63,1.42,1.42v1.58h-2v.3h2v1.26c.14-.15,.24-.33,.31-.53v-2.6c0-.95-.77-1.72-1.72-1.72-.7,0-1.3,.41-1.57,1.01-.1,.22-.15,.46-.15,.71h0v3.13c.14-.15,.24-.33,.31-.53h0v-2.6h0c0-.78,.63-1.42,1.42-1.42Z"/><path class="c" d="M66.93,9.95v-3.13c-.14,.15-.24,.33-.31,.53h0v2.6h0c0,.78-.63,1.42-1.42,1.42h0c-.78,0-1.42-.63-1.42-1.42v-3.13c-.14,.15-.24,.33-.31,.53v2.6c0,.95,.77,1.72,1.72,1.72h0c.7,0,1.3-.41,1.57-1.01,.1-.22,.15-.46,.15-.71h0Z"/><path class="b" d="M66.93,5.84h-.31v.95c.08-.18,.18-.34,.31-.48v-.47Z"/></g><g><path class="c" d="M73.72,6.15c.78,0,1.42,.63,1.42,1.42v1.58h-2v.3h2v1.26c.14-.15,.24-.33,.31-.53v-2.6c0-.95-.77-1.72-1.72-1.72-.7,0-1.3,.41-1.57,1.01-.1,.22-.15,.46-.15,.71h0v3.13c.14-.15,.24-.33,.31-.53h0v-2.6h0c0-.78,.63-1.42,1.42-1.42Z"/><path class="c" d="M76.02,9.95v-3.13c-.14,.15-.24,.33-.31,.53h0v2.6h0c0,.78-.63,1.42-1.42,1.42h0c-.78,0-1.42-.63-1.42-1.42v-3.13c-.14,.15-.24,.33-.31,.53v2.6c0,.95,.77,1.72,1.72,1.72h0c.7,0,1.3-.41,1.57-1.01,.1-.22,.15-.46,.15-.71h0Z"/><path class="b" d="M76.02,5.84h-.31v.95c.08-.18,.18-.34,.31-.48v-.47Z"/></g><g><path class="c" d="M82.81,6.15c.78,0,1.42,.63,1.42,1.42v1.58h-2v.3h2v1.26c.14-.15,.24-.33,.31-.53v-2.6c0-.95-.77-1.72-1.72-1.72-.7,0-1.3,.41-1.57,1.01-.1,.22-.15,.46-.15,.71h0v3.13c.14-.15,.24-.33,.31-.53h0v-2.6h0c0-.78,.63-1.42,1.42-1.42Z"/><path class="c" d="M85.11,9.95v-3.13c-.14,.15-.24,.33-.31,.53h0v2.6h0c0,.78-.63,1.42-1.42,1.42h0c-.78,0-1.42-.63-1.42-1.42v-3.13c-.14,.15-.24,.33-.31,.53v2.6c0,.95,.77,1.72,1.72,1.72h0c.7,0,1.3-.41,1.57-1.01,.1-.22,.15-.46,.15-.71h0Z"/><path class="b" d="M85.11,5.84h-.31v.95c.08-.18,.18-.34,.31-.48v-.47Z"/></g><g><path class="c" d="M91.9,6.15c.78,0,1.42,.63,1.42,1.42v1.58h-2v.3h2v1.26c.14-.15,.24-.33,.31-.53v-2.6c0-.95-.77-1.72-1.72-1.72-.7,0-1.3,.41-1.57,1.01-.1,.22-.15,.46-.15,.71h0v3.13c.14-.15,.24-.33,.31-.53h0v-2.6h0c0-.78,.63-1.42,1.42-1.42Z"/><path class="c" d="M94.2,9.95v-3.13c-.14,.15-.24,.33-.31,.53h0v2.6h0c0,.78-.63,1.42-1.42,1.42h0c-.78,0-1.42-.63-1.42-1.42v-3.13c-.14,.15-.24,.33-.31,.53v2.6c0,.95,.77,1.72,1.72,1.72h0c.7,0,1.3-.41,1.57-1.01,.1-.22,.15-.46,.15-.71h0Z"/><path class="b" d="M94.2,5.84h-.31v.95c.08-.18,.18-.34,.31-.48v-.47Z"/></g><g><path class="c" d="M100.99,6.15c.78,0,1.42,.63,1.42,1.42v1.58h-2v.3h2v1.26c.14-.15,.24-.33,.31-.53v-2.6c0-.95-.77-1.72-1.72-1.72-.7,0-1.3,.41-1.57,1.01-.1,.22-.15,.46-.15,.71h0v3.13c.14-.15,.24-.33,.31-.53h0v-2.6h0c0-.78,.63-1.42,1.42-1.42Z"/><path class="c" d="M103.28,9.95v-3.13c-.14,.15-.24,.33-.31,.53h0v2.6h0c0,.78-.63,1.42-1.42,1.42h0c-.78,0-1.42-.63-1.42-1.42v-3.13c-.14,.15-.24,.33-.31,.53v2.6c0,.95,.77,1.72,1.72,1.72h0c.7,0,1.3-.41,1.57-1.01,.1-.22,.15-.46,.15-.71h0Z"/><path class="b" d="M103.28,5.84h-.31v.95c.08-.18,.18-.34,.31-.48v-.47Z"/></g><g><path class="c" d="M110.08,6.15c.78,0,1.42,.63,1.42,1.42v1.58h-2v.3h2v1.26c.14-.15,.24-.33,.31-.53v-2.6c0-.95-.77-1.72-1.72-1.72-.7,0-1.3,.41-1.57,1.01-.1,.22-.15,.46-.15,.71h0v3.13c.14-.15,.24-.33,.31-.53h0v-2.6h0c0-.78,.63-1.42,1.42-1.42Z"/><path class="c" d="M112.37,9.95v-3.13c-.14,.15-.24,.33-.31,.53h0v2.6h0c0,.78-.63,1.42-1.42,1.42h0c-.78,0-1.42-.63-1.42-1.42v-3.13c-.14,.15-.24,.33-.31,.53v2.6c0,.95,.77,1.72,1.72,1.72h0c.7,0,1.3-.41,1.57-1.01,.1-.22,.15-.46,.15-.71h0Z"/><path class="b" d="M112.37,5.84h-.31v.95c.08-.18,.18-.34,.31-.48v-.47Z"/></g><g><path class="c" d="M119.17,6.15c.78,0,1.42,.63,1.42,1.42v1.58h-2v.3h2v1.26c.14-.15,.24-.33,.31-.53v-2.6c0-.95-.77-1.72-1.72-1.72-.7,0-1.3,.41-1.57,1.01-.1,.22-.15,.46-.15,.71h0v3.13c.14-.15,.24-.33,.31-.53h0v-2.6h0c0-.78,.63-1.42,1.42-1.42Z"/><path class="c" d="M121.46,9.95v-3.13c-.14,.15-.24,.33-.31,.53h0v2.6h0c0,.78-.63,1.42-1.42,1.42h0c-.78,0-1.42-.63-1.42-1.42v-3.13c-.14,.15-.24,.33-.31,.53v2.6c0,.95,.77,1.72,1.72,1.72h0c.7,0,1.3-.41,1.57-1.01,.1-.22,.15-.46,.15-.71h0Z"/><path class="b" d="M121.46,5.84h-.31v.95c.08-.18,.18-.34,.31-.48v-.47Z"/></g></g></g><g><g><g><path class="c" d="M69,11.99c.78,0,1.42,.63,1.42,1.42v1.58h-2v.3h2v1.26c.14-.15,.24-.33,.31-.53v-2.6c0-.95-.77-1.72-1.72-1.72-.7,0-1.3,.41-1.57,1.01-.1,.22-.15,.46-.15,.71h0v3.13c.14-.15,.24-.33,.31-.53h0v-2.6h0c0-.78,.63-1.42,1.42-1.42Z"/><path class="c" d="M71.29,15.79v-3.13c-.14,.15-.24,.33-.31,.53h0v2.6h0c0,.78-.63,1.42-1.42,1.42h0c-.78,0-1.42-.63-1.42-1.42v-3.13c-.14,.15-.24,.33-.31,.53v2.6c0,.95,.77,1.72,1.72,1.72h0c.7,0,1.3-.41,1.57-1.01,.1-.22,.15-.46,.15-.71h0Z"/><path class="b" d="M71.29,11.68h-.31v.95c.08-.18,.18-.34,.31-.48v-.47Z"/></g><g><path class="c" d="M78.09,11.99c.78,0,1.42,.63,1.42,1.42v1.58h-2v.3h2v1.26c.14-.15,.24-.33,.31-.53v-2.6c0-.95-.77-1.72-1.72-1.72-.7,0-1.3,.41-1.57,1.01-.1,.22-.15,.46-.15,.71h0v3.13c.14-.15,.24-.33,.31-.53h0v-2.6h0c0-.78,.63-1.42,1.42-1.42Z"/><path class="c" d="M80.38,15.79v-3.13c-.14,.15-.24,.33-.31,.53h0v2.6h0c0,.78-.63,1.42-1.42,1.42h0c-.78,0-1.42-.63-1.42-1.42v-3.13c-.14,.15-.24,.33-.31,.53v2.6c0,.95,.77,1.72,1.72,1.72h0c.7,0,1.3-.41,1.57-1.01,.1-.22,.15-.46,.15-.71h0Z"/><path class="b" d="M80.38,11.68h-.31v.95c.08-.18,.18-.34,.31-.48v-.47Z"/></g><g><path class="c" d="M87.17,11.99c.78,0,1.42,.63,1.42,1.42v1.58h-2v.3h2v1.26c.14-.15,.24-.33,.31-.53v-2.6c0-.95-.77-1.72-1.72-1.72-.7,0-1.3,.41-1.57,1.01-.1,.22-.15,.46-.15,.71h0v3.13c.14-.15,.24-.33,.31-.53h0v-2.6h0c0-.78,.63-1.42,1.42-1.42Z"/><path class="c" d="M89.47,15.79v-3.13c-.14,.15-.24,.33-.31,.53h0v2.6h0c0,.78-.63,1.42-1.42,1.42h0c-.78,0-1.42-.63-1.42-1.42v-3.13c-.14,.15-.24,.33-.31,.53v2.6c0,.95,.77,1.72,1.72,1.72h0c.7,0,1.3-.41,1.57-1.01,.1-.22,.15-.46,.15-.71h0Z"/><path class="b" d="M89.47,11.68h-.31v.95c.08-.18,.18-.34,.31-.48v-.47Z"/></g><g><path class="c" d="M96.26,11.99c.78,0,1.42,.63,1.42,1.42v1.58h-2v.3h2v1.26c.14-.15,.24-.33,.31-.53v-2.6c0-.95-.77-1.72-1.72-1.72-.7,0-1.3,.41-1.57,1.01-.1,.22-.15,.46-.15,.71h0v3.13c.14-.15,.24-.33,.31-.53h0v-2.6h0c0-.78,.63-1.42,1.42-1.42Z"/><path class="c" d="M98.56,15.79v-3.13c-.14,.15-.24,.33-.31,.53h0v2.6h0c0,.78-.63,1.42-1.42,1.42h0c-.78,0-1.42-.63-1.42-1.42v-3.13c-.14,.15-.24,.33-.31,.53v2.6c0,.95,.77,1.72,1.72,1.72h0c.7,0,1.3-.41,1.57-1.01,.1-.22,.15-.46,.15-.71h0Z"/><path class="b" d="M98.56,11.68h-.31v.95c.08-.18,.18-.34,.31-.48v-.47Z"/></g><g><path class="c" d="M105.35,11.99c.78,0,1.42,.63,1.42,1.42v1.58h-2v.3h2v1.26c.14-.15,.24-.33,.31-.53v-2.6c0-.95-.77-1.72-1.72-1.72-.7,0-1.3,.41-1.57,1.01-.1,.22-.15,.46-.15,.71h0v3.13c.14-.15,.24-.33,.31-.53h0v-2.6h0c0-.78,.63-1.42,1.42-1.42Z"/><path class="c" d="M107.65,15.79v-3.13c-.14,.15-.24,.33-.31,.53h0v2.6h0c0,.78-.63,1.42-1.42,1.42h0c-.78,0-1.42-.63-1.42-1.42v-3.13c-.14,.15-.24,.33-.31,.53v2.6c0,.95,.77,1.72,1.72,1.72h0c.7,0,1.3-.41,1.57-1.01,.1-.22,.15-.46,.15-.71h0Z"/><path class="b" d="M107.65,11.68h-.31v.95c.08-.18,.18-.34,.31-.48v-.47Z"/></g><g><path class="c" d="M114.44,11.99c.78,0,1.42,.63,1.42,1.42v1.58h-2v.3h2v1.26c.14-.15,.24-.33,.31-.53v-2.6c0-.95-.77-1.72-1.72-1.72-.7,0-1.3,.41-1.57,1.01-.1,.22-.15,.46-.15,.71h0v3.13c.14-.15,.24-.33,.31-.53h0v-2.6h0c0-.78,.63-1.42,1.42-1.42Z"/><path class="c" d="M116.73,15.79v-3.13c-.14,.15-.24,.33-.31,.53h0v2.6h0c0,.78-.63,1.42-1.42,1.42h0c-.78,0-1.42-.63-1.42-1.42v-3.13c-.14,.15-.24,.33-.31,.53v2.6c0,.95,.77,1.72,1.72,1.72h0c.7,0,1.3-.41,1.57-1.01,.1-.22,.15-.46,.15-.71h0Z"/><path class="b" d="M116.73,11.68h-.31v.95c.08-.18,.18-.34,.31-.48v-.47Z"/></g><g><path class="c" d="M123.53,11.99c.78,0,1.42,.63,1.42,1.42v1.58h-2v.3h2v1.26c.14-.15,.24-.33,.31-.53v-2.6c0-.95-.77-1.72-1.72-1.72-.7,0-1.3,.41-1.57,1.01-.1,.22-.15,.46-.15,.71h0v3.13c.14-.15,.24-.33,.31-.53h0v-2.6h0c0-.78,.63-1.42,1.42-1.42Z"/><path class="c" d="M125.82,15.79v-3.13c-.14,.15-.24,.33-.31,.53h0v2.6h0c0,.78-.63,1.42-1.42,1.42h0c-.78,0-1.42-.63-1.42-1.42v-3.13c-.14,.15-.24,.33-.31,.53v2.6c0,.95,.77,1.72,1.72,1.72h0c.7,0,1.3-.41,1.57-1.01,.1-.22,.15-.46,.15-.71h0Z"/><path class="b" d="M125.82,11.68h-.31v.95c.08-.18,.18-.34,.31-.48v-.47Z"/></g></g><g><g><path class="c" d="M64.64,17.83c.78,0,1.42,.63,1.42,1.42v1.58h-2v.3h2v1.26c.14-.15,.24-.33,.31-.53v-2.6c0-.95-.77-1.72-1.72-1.72-.7,0-1.3,.41-1.57,1.01-.1,.22-.15,.46-.15,.71h0v3.13c.14-.15,.24-.33,.31-.53h0v-2.6h0c0-.78,.63-1.42,1.42-1.42Z"/><path class="c" d="M66.93,21.63v-3.13c-.14,.15-.24,.33-.31,.53h0v2.6h0c0,.78-.63,1.42-1.42,1.42h0c-.78,0-1.42-.63-1.42-1.42v-3.13c-.14,.15-.24,.33-.31,.53v2.6c0,.95,.77,1.72,1.72,1.72h0c.7,0,1.3-.41,1.57-1.01,.1-.22,.15-.46,.15-.71h0Z"/><path class="b" d="M66.93,17.52h-.31v.95c.08-.18,.18-.34,.31-.48v-.47Z"/></g><g><path class="c" d="M73.72,17.83c.78,0,1.42,.63,1.42,1.42v1.58h-2v.3h2v1.26c.14-.15,.24-.33,.31-.53v-2.6c0-.95-.77-1.72-1.72-1.72-.7,0-1.3,.41-1.57,1.01-.1,.22-.15,.46-.15,.71h0v3.13c.14-.15,.24-.33,.31-.53h0v-2.6h0c0-.78,.63-1.42,1.42-1.42Z"/><path class="c" d="M76.02,21.63v-3.13c-.14,.15-.24,.33-.31,.53h0v2.6h0c0,.78-.63,1.42-1.42,1.42h0c-.78,0-1.42-.63-1.42-1.42v-3.13c-.14,.15-.24,.33-.31,.53v2.6c0,.95,.77,1.72,1.72,1.72h0c.7,0,1.3-.41,1.57-1.01,.1-.22,.15-.46,.15-.71h0Z"/><path class="b" d="M76.02,17.52h-.31v.95c.08-.18,.18-.34,.31-.48v-.47Z"/></g><g><path class="c" d="M82.81,17.83c.78,0,1.42,.63,1.42,1.42v1.58h-2v.3h2v1.26c.14-.15,.24-.33,.31-.53v-2.6c0-.95-.77-1.72-1.72-1.72-.7,0-1.3,.41-1.57,1.01-.1,.22-.15,.46-.15,.71h0v3.13c.14-.15,.24-.33,.31-.53h0v-2.6h0c0-.78,.63-1.42,1.42-1.42Z"/><path class="c" d="M85.11,21.63v-3.13c-.14,.15-.24,.33-.31,.53h0v2.6h0c0,.78-.63,1.42-1.42,1.42h0c-.78,0-1.42-.63-1.42-1.42v-3.13c-.14,.15-.24,.33-.31,.53v2.6c0,.95,.77,1.72,1.72,1.72h0c.7,0,1.3-.41,1.57-1.01,.1-.22,.15-.46,.15-.71h0Z"/><path class="b" d="M85.11,17.52h-.31v.95c.08-.18,.18-.34,.31-.48v-.47Z"/></g><g><path class="c" d="M91.9,17.83c.78,0,1.42,.63,1.42,1.42v1.58h-2v.3h2v1.26c.14-.15,.24-.33,.31-.53v-2.6c0-.95-.77-1.72-1.72-1.72-.7,0-1.3,.41-1.57,1.01-.1,.22-.15,.46-.15,.71h0v3.13c.14-.15,.24-.33,.31-.53h0v-2.6h0c0-.78,.63-1.42,1.42-1.42Z"/><path class="c" d="M94.2,21.63v-3.13c-.14,.15-.24,.33-.31,.53h0v2.6h0c0,.78-.63,1.42-1.42,1.42h0c-.78,0-1.42-.63-1.42-1.42v-3.13c-.14,.15-.24,.33-.31,.53v2.6c0,.95,.77,1.72,1.72,1.72h0c.7,0,1.3-.41,1.57-1.01,.1-.22,.15-.46,.15-.71h0Z"/><path class="b" d="M94.2,17.52h-.31v.95c.08-.18,.18-.34,.31-.48v-.47Z"/></g><g><path class="c" d="M100.99,17.83c.78,0,1.42,.63,1.42,1.42v1.58h-2v.3h2v1.26c.14-.15,.24-.33,.31-.53v-2.6c0-.95-.77-1.72-1.72-1.72-.7,0-1.3,.41-1.57,1.01-.1,.22-.15,.46-.15,.71h0v3.13c.14-.15,.24-.33,.31-.53h0v-2.6h0c0-.78,.63-1.42,1.42-1.42Z"/><path class="c" d="M103.28,21.63v-3.13c-.14,.15-.24,.33-.31,.53h0v2.6h0c0,.78-.63,1.42-1.42,1.42h0c-.78,0-1.42-.63-1.42-1.42v-3.13c-.14,.15-.24,.33-.31,.53v2.6c0,.95,.77,1.72,1.72,1.72h0c.7,0,1.3-.41,1.57-1.01,.1-.22,.15-.46,.15-.71h0Z"/><path class="b" d="M103.28,17.52h-.31v.95c.08-.18,.18-.34,.31-.48v-.47Z"/></g><g><path class="c" d="M110.08,17.83c.78,0,1.42,.63,1.42,1.42v1.58h-2v.3h2v1.26c.14-.15,.24-.33,.31-.53v-2.6c0-.95-.77-1.72-1.72-1.72-.7,0-1.3,.41-1.57,1.01-.1,.22-.15,.46-.15,.71h0v3.13c.14-.15,.24-.33,.31-.53h0v-2.6h0c0-.78,.63-1.42,1.42-1.42Z"/><path class="c" d="M112.37,21.63v-3.13c-.14,.15-.24,.33-.31,.53h0v2.6h0c0,.78-.63,1.42-1.42,1.42h0c-.78,0-1.42-.63-1.42-1.42v-3.13c-.14,.15-.24,.33-.31,.53v2.6c0,.95,.77,1.72,1.72,1.72h0c.7,0,1.3-.41,1.57-1.01,.1-.22,.15-.46,.15-.71h0Z"/><path class="b" d="M112.37,17.52h-.31v.95c.08-.18,.18-.34,.31-.48v-.47Z"/></g><g><path class="c" d="M119.17,17.83c.78,0,1.42,.63,1.42,1.42v1.58h-2v.3h2v1.26c.14-.15,.24-.33,.31-.53v-2.6c0-.95-.77-1.72-1.72-1.72-.7,0-1.3,.41-1.57,1.01-.1,.22-.15,.46-.15,.71h0v3.13c.14-.15,.24-.33,.31-.53h0v-2.6h0c0-.78,.63-1.42,1.42-1.42Z"/><path class="c" d="M121.46,21.63v-3.13c-.14,.15-.24,.33-.31,.53h0v2.6h0c0,.78-.63,1.42-1.42,1.42h0c-.78,0-1.42-.63-1.42-1.42v-3.13c-.14,.15-.24,.33-.31,.53v2.6c0,.95,.77,1.72,1.72,1.72h0c.7,0,1.3-.41,1.57-1.01,.1-.22,.15-.46,.15-.71h0Z"/><path class="b" d="M121.46,17.52h-.31v.95c.08-.18,.18-.34,.31-.48v-.47Z"/></g></g></g><g><g><g><path class="c" d="M6.39,24.74c.78,0,1.42,.63,1.42,1.42v1.58h-2v.3h2v1.26c.14-.15,.24-.33,.31-.53v-2.6c0-.95-.77-1.72-1.72-1.72-.7,0-1.3,.41-1.57,1.01-.1,.22-.15,.46-.15,.71h0v3.13c.14-.15,.24-.33,.31-.53h0v-2.6h0c0-.78,.63-1.42,1.42-1.42Z"/><path class="c" d="M8.69,28.55v-3.13c-.14,.15-.24,.33-.31,.53h0v2.6h0c0,.78-.63,1.42-1.42,1.42h0c-.78,0-1.42-.63-1.42-1.42v-3.13c-.14,.15-.24,.33-.31,.53v2.6c0,.95,.77,1.72,1.72,1.72h0c.7,0,1.3-.41,1.57-1.01,.1-.22,.15-.46,.15-.71h0Z"/><path class="b" d="M8.69,24.44h-.31v.95c.08-.18,.18-.34,.31-.48v-.47Z"/></g><g><path class="c" d="M15.48,24.74c.78,0,1.42,.63,1.42,1.42v1.58h-2v.3h2v1.26c.14-.15,.24-.33,.31-.53v-2.6c0-.95-.77-1.72-1.72-1.72-.7,0-1.3,.41-1.57,1.01-.1,.22-.15,.46-.15,.71h0v3.13c.14-.15,.24-.33,.31-.53h0v-2.6h0c0-.78,.63-1.42,1.42-1.42Z"/><path class="c" d="M17.78,28.55v-3.13c-.14,.15-.24,.33-.31,.53h0v2.6h0c0,.78-.63,1.42-1.42,1.42h0c-.78,0-1.42-.63-1.42-1.42v-3.13c-.14,.15-.24,.33-.31,.53v2.6c0,.95,.77,1.72,1.72,1.72h0c.7,0,1.3-.41,1.57-1.01,.1-.22,.15-.46,.15-.71h0Z"/><path class="b" d="M17.78,24.44h-.31v.95c.08-.18,.18-.34,.31-.48v-.47Z"/></g><g><path class="c" d="M24.57,24.74c.78,0,1.42,.63,1.42,1.42v1.58h-2v.3h2v1.26c.14-.15,.24-.33,.31-.53v-2.6c0-.95-.77-1.72-1.72-1.72-.7,0-1.3,.41-1.57,1.01-.1,.22-.15,.46-.15,.71h0v3.13c.14-.15,.24-.33,.31-.53h0v-2.6h0c0-.78,.63-1.42,1.42-1.42Z"/><path class="c" d="M26.86,28.55v-3.13c-.14,.15-.24,.33-.31,.53h0v2.6h0c0,.78-.63,1.42-1.42,1.42h0c-.78,0-1.42-.63-1.42-1.42v-3.13c-.14,.15-.24,.33-.31,.53v2.6c0,.95,.77,1.72,1.72,1.72h0c.7,0,1.3-.41,1.57-1.01,.1-.22,.15-.46,.15-.71h0Z"/><path class="b" d="M26.86,24.44h-.31v.95c.08-.18,.18-.34,.31-.48v-.47Z"/></g><g><path class="c" d="M33.66,24.74c.78,0,1.42,.63,1.42,1.42v1.58h-2v.3h2v1.26c.14-.15,.24-.33,.31-.53v-2.6c0-.95-.77-1.72-1.72-1.72-.7,0-1.3,.41-1.57,1.01-.1,.22-.15,.46-.15,.71h0v3.13c.14-.15,.24-.33,.31-.53h0v-2.6h0c0-.78,.63-1.42,1.42-1.42Z"/><path class="c" d="M35.95,28.55v-3.13c-.14,.15-.24,.33-.31,.53h0v2.6h0c0,.78-.63,1.42-1.42,1.42h0c-.78,0-1.42-.63-1.42-1.42v-3.13c-.14,.15-.24,.33-.31,.53v2.6c0,.95,.77,1.72,1.72,1.72h0c.7,0,1.3-.41,1.57-1.01,.1-.22,.15-.46,.15-.71h0Z"/><path class="b" d="M35.95,24.44h-.31v.95c.08-.18,.18-.34,.31-.48v-.47Z"/></g><g><path class="c" d="M42.75,24.74c.78,0,1.42,.63,1.42,1.42v1.58h-2v.3h2v1.26c.14-.15,.24-.33,.31-.53v-2.6c0-.95-.77-1.72-1.72-1.72-.7,0-1.3,.41-1.57,1.01-.1,.22-.15,.46-.15,.71h0v3.13c.14-.15,.24-.33,.31-.53h0v-2.6h0c0-.78,.63-1.42,1.42-1.42Z"/><path class="c" d="M45.04,28.55v-3.13c-.14,.15-.24,.33-.31,.53h0v2.6h0c0,.78-.63,1.42-1.42,1.42h0c-.78,0-1.42-.63-1.42-1.42v-3.13c-.14,.15-.24,.33-.31,.53v2.6c0,.95,.77,1.72,1.72,1.72h0c.7,0,1.3-.41,1.57-1.01,.1-.22,.15-.46,.15-.71h0Z"/><path class="b" d="M45.04,24.44h-.31v.95c.08-.18,.18-.34,.31-.48v-.47Z"/></g><g><path class="c" d="M51.84,24.74c.78,0,1.42,.63,1.42,1.42v1.58h-2v.3h2v1.26c.14-.15,.24-.33,.31-.53v-2.6c0-.95-.77-1.72-1.72-1.72-.7,0-1.3,.41-1.57,1.01-.1,.22-.15,.46-.15,.71h0v3.13c.14-.15,.24-.33,.31-.53h0v-2.6h0c0-.78,.63-1.42,1.42-1.42Z"/><path class="c" d="M54.13,28.55v-3.13c-.14,.15-.24,.33-.31,.53h0v2.6h0c0,.78-.63,1.42-1.42,1.42h0c-.78,0-1.42-.63-1.42-1.42v-3.13c-.14,.15-.24,.33-.31,.53v2.6c0,.95,.77,1.72,1.72,1.72h0c.7,0,1.3-.41,1.57-1.01,.1-.22,.15-.46,.15-.71h0Z"/><path class="b" d="M54.13,24.44h-.31v.95c.08-.18,.18-.34,.31-.48v-.47Z"/></g><g><path class="c" d="M60.93,24.74c.78,0,1.42,.63,1.42,1.42v1.58h-2v.3h2v1.26c.14-.15,.24-.33,.31-.53v-2.6c0-.95-.77-1.72-1.72-1.72-.7,0-1.3,.41-1.57,1.01-.1,.22-.15,.46-.15,.71h0v3.13c.14-.15,.24-.33,.31-.53h0v-2.6h0c0-.78,.63-1.42,1.42-1.42Z"/><path class="c" d="M63.22,28.55v-3.13c-.14,.15-.24,.33-.31,.53h0v2.6h0c0,.78-.63,1.42-1.42,1.42h0c-.78,0-1.42-.63-1.42-1.42v-3.13c-.14,.15-.24,.33-.31,.53v2.6c0,.95,.77,1.72,1.72,1.72h0c.7,0,1.3-.41,1.57-1.01,.1-.22,.15-.46,.15-.71h0Z"/><path class="b" d="M63.22,24.44h-.31v.95c.08-.18,.18-.34,.31-.48v-.47Z"/></g></g><g><g><path class="c" d="M2.03,30.58c.78,0,1.42,.63,1.42,1.42v1.58H1.45v.3H3.45v1.26c.14-.15,.24-.33,.31-.53v-2.6c0-.95-.77-1.72-1.72-1.72-.7,0-1.3,.41-1.57,1.01-.1,.22-.15,.46-.15,.71h0v3.13c.14-.15,.24-.33,.31-.53h0v-2.6h0c0-.78,.63-1.42,1.42-1.42Z"/><path class="c" d="M4.33,34.39v-3.13c-.14,.15-.24,.33-.31,.53h0v2.6h0c0,.78-.63,1.42-1.42,1.42h0c-.78,0-1.42-.63-1.42-1.42v-3.13c-.14,.15-.24,.33-.31,.53v2.6c0,.95,.77,1.72,1.72,1.72h0c.7,0,1.3-.41,1.57-1.01,.1-.22,.15-.46,.15-.71h0Z"/><path class="b" d="M4.33,30.28h-.31v.95c.08-.18,.18-.34,.31-.48v-.47Z"/></g><g><path class="c" d="M11.12,30.58c.78,0,1.42,.63,1.42,1.42v1.58h-2v.3h2v1.26c.14-.15,.24-.33,.31-.53v-2.6c0-.95-.77-1.72-1.72-1.72-.7,0-1.3,.41-1.57,1.01-.1,.22-.15,.46-.15,.71h0v3.13c.14-.15,.24-.33,.31-.53h0v-2.6h0c0-.78,.63-1.42,1.42-1.42Z"/><path class="c" d="M13.42,34.39v-3.13c-.14,.15-.24,.33-.31,.53h0v2.6h0c0,.78-.63,1.42-1.42,1.42h0c-.78,0-1.42-.63-1.42-1.42v-3.13c-.14,.15-.24,.33-.31,.53v2.6c0,.95,.77,1.72,1.72,1.72h0c.7,0,1.3-.41,1.57-1.01,.1-.22,.15-.46,.15-.71h0Z"/><path class="b" d="M13.42,30.28h-.31v.95c.08-.18,.18-.34,.31-.48v-.47Z"/></g><g><path class="c" d="M20.21,30.58c.78,0,1.42,.63,1.42,1.42v1.58h-2v.3h2v1.26c.14-.15,.24-.33,.31-.53v-2.6c0-.95-.77-1.72-1.72-1.72-.7,0-1.3,.41-1.57,1.01-.1,.22-.15,.46-.15,.71h0v3.13c.14-.15,.24-.33,.31-.53h0v-2.6h0c0-.78,.63-1.42,1.42-1.42Z"/><path class="c" d="M22.5,34.39v-3.13c-.14,.15-.24,.33-.31,.53h0v2.6h0c0,.78-.63,1.42-1.42,1.42h0c-.78,0-1.42-.63-1.42-1.42v-3.13c-.14,.15-.24,.33-.31,.53v2.6c0,.95,.77,1.72,1.72,1.72h0c.7,0,1.3-.41,1.57-1.01,.1-.22,.15-.46,.15-.71h0Z"/><path class="b" d="M22.5,30.28h-.31v.95c.08-.18,.18-.34,.31-.48v-.47Z"/></g><g><path class="c" d="M29.3,30.58c.78,0,1.42,.63,1.42,1.42v1.58h-2v.3h2v1.26c.14-.15,.24-.33,.31-.53v-2.6c0-.95-.77-1.72-1.72-1.72-.7,0-1.3,.41-1.57,1.01-.1,.22-.15,.46-.15,.71h0v3.13c.14-.15,.24-.33,.31-.53h0v-2.6h0c0-.78,.63-1.42,1.42-1.42Z"/><path class="c" d="M31.59,34.39v-3.13c-.14,.15-.24,.33-.31,.53h0v2.6h0c0,.78-.63,1.42-1.42,1.42h0c-.78,0-1.42-.63-1.42-1.42v-3.13c-.14,.15-.24,.33-.31,.53v2.6c0,.95,.77,1.72,1.72,1.72h0c.7,0,1.3-.41,1.57-1.01,.1-.22,.15-.46,.15-.71h0Z"/><path class="b" d="M31.59,30.28h-.31v.95c.08-.18,.18-.34,.31-.48v-.47Z"/></g><g><path class="c" d="M38.39,30.58c.78,0,1.42,.63,1.42,1.42v1.58h-2v.3h2v1.26c.14-.15,.24-.33,.31-.53v-2.6c0-.95-.77-1.72-1.72-1.72-.7,0-1.3,.41-1.57,1.01-.1,.22-.15,.46-.15,.71h0v3.13c.14-.15,.24-.33,.31-.53h0v-2.6h0c0-.78,.63-1.42,1.42-1.42Z"/><path class="c" d="M40.68,34.39v-3.13c-.14,.15-.24,.33-.31,.53h0v2.6h0c0,.78-.63,1.42-1.42,1.42h0c-.78,0-1.42-.63-1.42-1.42v-3.13c-.14,.15-.24,.33-.31,.53v2.6c0,.95,.77,1.72,1.72,1.72h0c.7,0,1.3-.41,1.57-1.01,.1-.22,.15-.46,.15-.71h0Z"/><path class="b" d="M40.68,30.28h-.31v.95c.08-.18,.18-.34,.31-.48v-.47Z"/></g><g><path class="c" d="M47.48,30.58c.78,0,1.42,.63,1.42,1.42v1.58h-2v.3h2v1.26c.14-.15,.24-.33,.31-.53v-2.6c0-.95-.77-1.72-1.72-1.72-.7,0-1.3,.41-1.57,1.01-.1,.22-.15,.46-.15,.71h0v3.13c.14-.15,.24-.33,.31-.53h0v-2.6h0c0-.78,.63-1.42,1.42-1.42Z"/><path class="c" d="M49.77,34.39v-3.13c-.14,.15-.24,.33-.31,.53h0v2.6h0c0,.78-.63,1.42-1.42,1.42h0c-.78,0-1.42-.63-1.42-1.42v-3.13c-.14,.15-.24,.33-.31,.53v2.6c0,.95,.77,1.72,1.72,1.72h0c.7,0,1.3-.41,1.57-1.01,.1-.22,.15-.46,.15-.71h0Z"/><path class="b" d="M49.77,30.28h-.31v.95c.08-.18,.18-.34,.31-.48v-.47Z"/></g><g><path class="c" d="M56.57,30.58c.78,0,1.42,.63,1.42,1.42v1.58h-2v.3h2v1.26c.14-.15,.24-.33,.31-.53v-2.6c0-.95-.77-1.72-1.72-1.72-.7,0-1.3,.41-1.57,1.01-.1,.22-.15,.46-.15,.71h0v3.13c.14-.15,.24-.33,.31-.53h0v-2.6h0c0-.78,.63-1.42,1.42-1.42Z"/><path class="c" d="M58.86,34.39v-3.13c-.14,.15-.24,.33-.31,.53h0v2.6h0c0,.78-.63,1.42-1.42,1.42h0c-.78,0-1.42-.63-1.42-1.42v-3.13c-.14,.15-.24,.33-.31,.53v2.6c0,.95,.77,1.72,1.72,1.72h0c.7,0,1.3-.41,1.57-1.01,.1-.22,.15-.46,.15-.71h0Z"/><path class="b" d="M58.86,30.28h-.31v.95c.08-.18,.18-.34,.31-.48v-.47Z"/></g></g></g><g><g><g><path class="c" d="M6.39,36.42c.78,0,1.42,.63,1.42,1.42v1.58h-2v.3h2v1.26c.14-.15,.24-.33,.31-.53v-2.6c0-.95-.77-1.72-1.72-1.72-.7,0-1.3,.41-1.57,1.01-.1,.22-.15,.46-.15,.71h0v3.13c.14-.15,.24-.33,.31-.53h0v-2.6h0c0-.78,.63-1.42,1.42-1.42Z"/><path class="c" d="M8.69,40.23v-3.13c-.14,.15-.24,.33-.31,.53h0v2.6h0c0,.78-.63,1.42-1.42,1.42h0c-.78,0-1.42-.63-1.42-1.42v-3.13c-.14,.15-.24,.33-.31,.53v2.6c0,.95,.77,1.72,1.72,1.72h0c.7,0,1.3-.41,1.57-1.01,.1-.22,.15-.46,.15-.71h0Z"/><path class="b" d="M8.69,36.12h-.31v.95c.08-.18,.18-.34,.31-.48v-.47Z"/></g><g><path class="c" d="M15.48,36.42c.78,0,1.42,.63,1.42,1.42v1.58h-2v.3h2v1.26c.14-.15,.24-.33,.31-.53v-2.6c0-.95-.77-1.72-1.72-1.72-.7,0-1.3,.41-1.57,1.01-.1,.22-.15,.46-.15,.71h0v3.13c.14-.15,.24-.33,.31-.53h0v-2.6h0c0-.78,.63-1.42,1.42-1.42Z"/><path class="c" d="M17.78,40.23v-3.13c-.14,.15-.24,.33-.31,.53h0v2.6h0c0,.78-.63,1.42-1.42,1.42h0c-.78,0-1.42-.63-1.42-1.42v-3.13c-.14,.15-.24,.33-.31,.53v2.6c0,.95,.77,1.72,1.72,1.72h0c.7,0,1.3-.41,1.57-1.01,.1-.22,.15-.46,.15-.71h0Z"/><path class="b" d="M17.78,36.12h-.31v.95c.08-.18,.18-.34,.31-.48v-.47Z"/></g><g><path class="c" d="M24.57,36.42c.78,0,1.42,.63,1.42,1.42v1.58h-2v.3h2v1.26c.14-.15,.24-.33,.31-.53v-2.6c0-.95-.77-1.72-1.72-1.72-.7,0-1.3,.41-1.57,1.01-.1,.22-.15,.46-.15,.71h0v3.13c.14-.15,.24-.33,.31-.53h0v-2.6h0c0-.78,.63-1.42,1.42-1.42Z"/><path class="c" d="M26.86,40.23v-3.13c-.14,.15-.24,.33-.31,.53h0v2.6h0c0,.78-.63,1.42-1.42,1.42h0c-.78,0-1.42-.63-1.42-1.42v-3.13c-.14,.15-.24,.33-.31,.53v2.6c0,.95,.77,1.72,1.72,1.72h0c.7,0,1.3-.41,1.57-1.01,.1-.22,.15-.46,.15-.71h0Z"/><path class="b" d="M26.86,36.12h-.31v.95c.08-.18,.18-.34,.31-.48v-.47Z"/></g><g><path class="c" d="M33.66,36.42c.78,0,1.42,.63,1.42,1.42v1.58h-2v.3h2v1.26c.14-.15,.24-.33,.31-.53v-2.6c0-.95-.77-1.72-1.72-1.72-.7,0-1.3,.41-1.57,1.01-.1,.22-.15,.46-.15,.71h0v3.13c.14-.15,.24-.33,.31-.53h0v-2.6h0c0-.78,.63-1.42,1.42-1.42Z"/><path class="c" d="M35.95,40.23v-3.13c-.14,.15-.24,.33-.31,.53h0v2.6h0c0,.78-.63,1.42-1.42,1.42h0c-.78,0-1.42-.63-1.42-1.42v-3.13c-.14,.15-.24,.33-.31,.53v2.6c0,.95,.77,1.72,1.72,1.72h0c.7,0,1.3-.41,1.57-1.01,.1-.22,.15-.46,.15-.71h0Z"/><path class="b" d="M35.95,36.12h-.31v.95c.08-.18,.18-.34,.31-.48v-.47Z"/></g><g><path class="c" d="M42.75,36.42c.78,0,1.42,.63,1.42,1.42v1.58h-2v.3h2v1.26c.14-.15,.24-.33,.31-.53v-2.6c0-.95-.77-1.72-1.72-1.72-.7,0-1.3,.41-1.57,1.01-.1,.22-.15,.46-.15,.71h0v3.13c.14-.15,.24-.33,.31-.53h0v-2.6h0c0-.78,.63-1.42,1.42-1.42Z"/><path class="c" d="M45.04,40.23v-3.13c-.14,.15-.24,.33-.31,.53h0v2.6h0c0,.78-.63,1.42-1.42,1.42h0c-.78,0-1.42-.63-1.42-1.42v-3.13c-.14,.15-.24,.33-.31,.53v2.6c0,.95,.77,1.72,1.72,1.72h0c.7,0,1.3-.41,1.57-1.01,.1-.22,.15-.46,.15-.71h0Z"/><path class="b" d="M45.04,36.12h-.31v.95c.08-.18,.18-.34,.31-.48v-.47Z"/></g><g><path class="c" d="M51.84,36.42c.78,0,1.42,.63,1.42,1.42v1.58h-2v.3h2v1.26c.14-.15,.24-.33,.31-.53v-2.6c0-.95-.77-1.72-1.72-1.72-.7,0-1.3,.41-1.57,1.01-.1,.22-.15,.46-.15,.71h0v3.13c.14-.15,.24-.33,.31-.53h0v-2.6h0c0-.78,.63-1.42,1.42-1.42Z"/><path class="c" d="M54.13,40.23v-3.13c-.14,.15-.24,.33-.31,.53h0v2.6h0c0,.78-.63,1.42-1.42,1.42h0c-.78,0-1.42-.63-1.42-1.42v-3.13c-.14,.15-.24,.33-.31,.53v2.6c0,.95,.77,1.72,1.72,1.72h0c.7,0,1.3-.41,1.57-1.01,.1-.22,.15-.46,.15-.71h0Z"/><path class="b" d="M54.13,36.12h-.31v.95c.08-.18,.18-.34,.31-.48v-.47Z"/></g><g><path class="c" d="M60.93,36.42c.78,0,1.42,.63,1.42,1.42v1.58h-2v.3h2v1.26c.14-.15,.24-.33,.31-.53v-2.6c0-.95-.77-1.72-1.72-1.72-.7,0-1.3,.41-1.57,1.01-.1,.22-.15,.46-.15,.71h0v3.13c.14-.15,.24-.33,.31-.53h0v-2.6h0c0-.78,.63-1.42,1.42-1.42Z"/><path class="c" d="M63.22,40.23v-3.13c-.14,.15-.24,.33-.31,.53h0v2.6h0c0,.78-.63,1.42-1.42,1.42h0c-.78,0-1.42-.63-1.42-1.42v-3.13c-.14,.15-.24,.33-.31,.53v2.6c0,.95,.77,1.72,1.72,1.72h0c.7,0,1.3-.41,1.57-1.01,.1-.22,.15-.46,.15-.71h0Z"/><path class="b" d="M63.22,36.12h-.31v.95c.08-.18,.18-.34,.31-.48v-.47Z"/></g></g><g><g><path class="c" d="M2.03,42.26c.78,0,1.42,.63,1.42,1.42v1.58H1.45v.3H3.45v1.26c.14-.15,.24-.33,.31-.53v-2.6c0-.95-.77-1.72-1.72-1.72-.7,0-1.3,.41-1.57,1.01-.1,.22-.15,.46-.15,.71h0v3.13c.14-.15,.24-.33,.31-.53h0v-2.6h0c0-.78,.63-1.42,1.42-1.42Z"/><path class="c" d="M4.33,46.07v-3.13c-.14,.15-.24,.33-.31,.53h0v2.6h0c0,.78-.63,1.42-1.42,1.42h0c-.78,0-1.42-.63-1.42-1.42v-3.13c-.14,.15-.24,.33-.31,.53v2.6c0,.95,.77,1.72,1.72,1.72h0c.7,0,1.3-.41,1.57-1.01,.1-.22,.15-.46,.15-.71h0Z"/><path class="b" d="M4.33,41.95h-.31v.95c.08-.18,.18-.34,.31-.48v-.47Z"/></g><g><path class="c" d="M11.12,42.26c.78,0,1.42,.63,1.42,1.42v1.58h-2v.3h2v1.26c.14-.15,.24-.33,.31-.53v-2.6c0-.95-.77-1.72-1.72-1.72-.7,0-1.3,.41-1.57,1.01-.1,.22-.15,.46-.15,.71h0v3.13c.14-.15,.24-.33,.31-.53h0v-2.6h0c0-.78,.63-1.42,1.42-1.42Z"/><path class="c" d="M13.42,46.07v-3.13c-.14,.15-.24,.33-.31,.53h0v2.6h0c0,.78-.63,1.42-1.42,1.42h0c-.78,0-1.42-.63-1.42-1.42v-3.13c-.14,.15-.24,.33-.31,.53v2.6c0,.95,.77,1.72,1.72,1.72h0c.7,0,1.3-.41,1.57-1.01,.1-.22,.15-.46,.15-.71h0Z"/><path class="b" d="M13.42,41.95h-.31v.95c.08-.18,.18-.34,.31-.48v-.47Z"/></g><g><path class="c" d="M20.21,42.26c.78,0,1.42,.63,1.42,1.42v1.58h-2v.3h2v1.26c.14-.15,.24-.33,.31-.53v-2.6c0-.95-.77-1.72-1.72-1.72-.7,0-1.3,.41-1.57,1.01-.1,.22-.15,.46-.15,.71h0v3.13c.14-.15,.24-.33,.31-.53h0v-2.6h0c0-.78,.63-1.42,1.42-1.42Z"/><path class="c" d="M22.5,46.07v-3.13c-.14,.15-.24,.33-.31,.53h0v2.6h0c0,.78-.63,1.42-1.42,1.42h0c-.78,0-1.42-.63-1.42-1.42v-3.13c-.14,.15-.24,.33-.31,.53v2.6c0,.95,.77,1.72,1.72,1.72h0c.7,0,1.3-.41,1.57-1.01,.1-.22,.15-.46,.15-.71h0Z"/><path class="b" d="M22.5,41.95h-.31v.95c.08-.18,.18-.34,.31-.48v-.47Z"/></g><g><path class="c" d="M29.3,42.26c.78,0,1.42,.63,1.42,1.42v1.58h-2v.3h2v1.26c.14-.15,.24-.33,.31-.53v-2.6c0-.95-.77-1.72-1.72-1.72-.7,0-1.3,.41-1.57,1.01-.1,.22-.15,.46-.15,.71h0v3.13c.14-.15,.24-.33,.31-.53h0v-2.6h0c0-.78,.63-1.42,1.42-1.42Z"/><path class="c" d="M31.59,46.07v-3.13c-.14,.15-.24,.33-.31,.53h0v2.6h0c0,.78-.63,1.42-1.42,1.42h0c-.78,0-1.42-.63-1.42-1.42v-3.13c-.14,.15-.24,.33-.31,.53v2.6c0,.95,.77,1.72,1.72,1.72h0c.7,0,1.3-.41,1.57-1.01,.1-.22,.15-.46,.15-.71h0Z"/><path class="b" d="M31.59,41.95h-.31v.95c.08-.18,.18-.34,.31-.48v-.47Z"/></g><g><path class="c" d="M38.39,42.26c.78,0,1.42,.63,1.42,1.42v1.58h-2v.3h2v1.26c.14-.15,.24-.33,.31-.53v-2.6c0-.95-.77-1.72-1.72-1.72-.7,0-1.3,.41-1.57,1.01-.1,.22-.15,.46-.15,.71h0v3.13c.14-.15,.24-.33,.31-.53h0v-2.6h0c0-.78,.63-1.42,1.42-1.42Z"/><path class="c" d="M40.68,46.07v-3.13c-.14,.15-.24,.33-.31,.53h0v2.6h0c0,.78-.63,1.42-1.42,1.42h0c-.78,0-1.42-.63-1.42-1.42v-3.13c-.14,.15-.24,.33-.31,.53v2.6c0,.95,.77,1.72,1.72,1.72h0c.7,0,1.3-.41,1.57-1.01,.1-.22,.15-.46,.15-.71h0Z"/><path class="b" d="M40.68,41.95h-.31v.95c.08-.18,.18-.34,.31-.48v-.47Z"/></g><g><path class="c" d="M47.48,42.26c.78,0,1.42,.63,1.42,1.42v1.58h-2v.3h2v1.26c.14-.15,.24-.33,.31-.53v-2.6c0-.95-.77-1.72-1.72-1.72-.7,0-1.3,.41-1.57,1.01-.1,.22-.15,.46-.15,.71h0v3.13c.14-.15,.24-.33,.31-.53h0v-2.6h0c0-.78,.63-1.42,1.42-1.42Z"/><path class="c" d="M49.77,46.07v-3.13c-.14,.15-.24,.33-.31,.53h0v2.6h0c0,.78-.63,1.42-1.42,1.42h0c-.78,0-1.42-.63-1.42-1.42v-3.13c-.14,.15-.24,.33-.31,.53v2.6c0,.95,.77,1.72,1.72,1.72h0c.7,0,1.3-.41,1.57-1.01,.1-.22,.15-.46,.15-.71h0Z"/><path class="b" d="M49.77,41.95h-.31v.95c.08-.18,.18-.34,.31-.48v-.47Z"/></g><g><path class="c" d="M56.57,42.26c.78,0,1.42,.63,1.42,1.42v1.58h-2v.3h2v1.26c.14-.15,.24-.33,.31-.53v-2.6c0-.95-.77-1.72-1.72-1.72-.7,0-1.3,.41-1.57,1.01-.1,.22-.15,.46-.15,.71h0v3.13c.14-.15,.24-.33,.31-.53h0v-2.6h0c0-.78,.63-1.42,1.42-1.42Z"/><path class="c" d="M58.86,46.07v-3.13c-.14,.15-.24,.33-.31,.53h0v2.6h0c0,.78-.63,1.42-1.42,1.42h0c-.78,0-1.42-.63-1.42-1.42v-3.13c-.14,.15-.24,.33-.31,.53v2.6c0,.95,.77,1.72,1.72,1.72h0c.7,0,1.3-.41,1.57-1.01,.1-.22,.15-.46,.15-.71h0Z"/><path class="b" d="M58.86,41.95h-.31v.95c.08-.18,.18-.34,.31-.48v-.47Z"/></g></g></g><g><g><g><path class="c" d="M69.31,24.74c.78,0,1.42,.63,1.42,1.42v1.58h-2v.3h2v1.26c.14-.15,.24-.33,.31-.53v-2.6c0-.95-.77-1.72-1.72-1.72-.7,0-1.3,.41-1.57,1.01-.1,.22-.15,.46-.15,.71h0v3.13c.14-.15,.24-.33,.31-.53h0v-2.6h0c0-.78,.63-1.42,1.42-1.42Z"/><path class="c" d="M71.6,28.55v-3.13c-.14,.15-.24,.33-.31,.53h0v2.6h0c0,.78-.63,1.42-1.42,1.42h0c-.78,0-1.42-.63-1.42-1.42v-3.13c-.14,.15-.24,.33-.31,.53v2.6c0,.95,.77,1.72,1.72,1.72h0c.7,0,1.3-.41,1.57-1.01,.1-.22,.15-.46,.15-.71h0Z"/><path class="b" d="M71.6,24.44h-.31v.95c.08-.18,.18-.34,.31-.48v-.47Z"/></g><g><path class="c" d="M78.39,24.74c.78,0,1.42,.63,1.42,1.42v1.58h-2v.3h2v1.26c.14-.15,.24-.33,.31-.53v-2.6c0-.95-.77-1.72-1.72-1.72-.7,0-1.3,.41-1.57,1.01-.1,.22-.15,.46-.15,.71h0v3.13c.14-.15,.24-.33,.31-.53h0v-2.6h0c0-.78,.63-1.42,1.42-1.42Z"/><path class="c" d="M80.69,28.55v-3.13c-.14,.15-.24,.33-.31,.53h0v2.6h0c0,.78-.63,1.42-1.42,1.42h0c-.78,0-1.42-.63-1.42-1.42v-3.13c-.14,.15-.24,.33-.31,.53v2.6c0,.95,.77,1.72,1.72,1.72h0c.7,0,1.3-.41,1.57-1.01,.1-.22,.15-.46,.15-.71h0Z"/><path class="b" d="M80.69,24.44h-.31v.95c.08-.18,.18-.34,.31-.48v-.47Z"/></g><g><path class="c" d="M87.48,24.74c.78,0,1.42,.63,1.42,1.42v1.58h-2v.3h2v1.26c.14-.15,.24-.33,.31-.53v-2.6c0-.95-.77-1.72-1.72-1.72-.7,0-1.3,.41-1.57,1.01-.1,.22-.15,.46-.15,.71h0v3.13c.14-.15,.24-.33,.31-.53h0v-2.6h0c0-.78,.63-1.42,1.42-1.42Z"/><path class="c" d="M89.78,28.55v-3.13c-.14,.15-.24,.33-.31,.53h0v2.6h0c0,.78-.63,1.42-1.42,1.42h0c-.78,0-1.42-.63-1.42-1.42v-3.13c-.14,.15-.24,.33-.31,.53v2.6c0,.95,.77,1.72,1.72,1.72h0c.7,0,1.3-.41,1.57-1.01,.1-.22,.15-.46,.15-.71h0Z"/><path class="b" d="M89.78,24.44h-.31v.95c.08-.18,.18-.34,.31-.48v-.47Z"/></g><g><path class="c" d="M96.57,24.74c.78,0,1.42,.63,1.42,1.42v1.58h-2v.3h2v1.26c.14-.15,.24-.33,.31-.53v-2.6c0-.95-.77-1.72-1.72-1.72-.7,0-1.3,.41-1.57,1.01-.1,.22-.15,.46-.15,.71h0v3.13c.14-.15,.24-.33,.31-.53h0v-2.6h0c0-.78,.63-1.42,1.42-1.42Z"/><path class="c" d="M98.87,28.55v-3.13c-.14,.15-.24,.33-.31,.53h0v2.6h0c0,.78-.63,1.42-1.42,1.42h0c-.78,0-1.42-.63-1.42-1.42v-3.13c-.14,.15-.24,.33-.31,.53v2.6c0,.95,.77,1.72,1.72,1.72h0c.7,0,1.3-.41,1.57-1.01,.1-.22,.15-.46,.15-.71h0Z"/><path class="b" d="M98.87,24.44h-.31v.95c.08-.18,.18-.34,.31-.48v-.47Z"/></g><g><path class="c" d="M105.66,24.74c.78,0,1.42,.63,1.42,1.42v1.58h-2v.3h2v1.26c.14-.15,.24-.33,.31-.53v-2.6c0-.95-.77-1.72-1.72-1.72-.7,0-1.3,.41-1.57,1.01-.1,.22-.15,.46-.15,.71h0v3.13c.14-.15,.24-.33,.31-.53h0v-2.6h0c0-.78,.63-1.42,1.42-1.42Z"/><path class="c" d="M107.95,28.55v-3.13c-.14,.15-.24,.33-.31,.53h0v2.6h0c0,.78-.63,1.42-1.42,1.42h0c-.78,0-1.42-.63-1.42-1.42v-3.13c-.14,.15-.24,.33-.31,.53v2.6c0,.95,.77,1.72,1.72,1.72h0c.7,0,1.3-.41,1.57-1.01,.1-.22,.15-.46,.15-.71h0Z"/><path class="b" d="M107.95,24.44h-.31v.95c.08-.18,.18-.34,.31-.48v-.47Z"/></g><g><path class="c" d="M114.75,24.74c.78,0,1.42,.63,1.42,1.42v1.58h-2v.3h2v1.26c.14-.15,.24-.33,.31-.53v-2.6c0-.95-.77-1.72-1.72-1.72-.7,0-1.3,.41-1.57,1.01-.1,.22-.15,.46-.15,.71h0v3.13c.14-.15,.24-.33,.31-.53h0v-2.6h0c0-.78,.63-1.42,1.42-1.42Z"/><path class="c" d="M117.04,28.55v-3.13c-.14,.15-.24,.33-.31,.53h0v2.6h0c0,.78-.63,1.42-1.42,1.42h0c-.78,0-1.42-.63-1.42-1.42v-3.13c-.14,.15-.24,.33-.31,.53v2.6c0,.95,.77,1.72,1.72,1.72h0c.7,0,1.3-.41,1.57-1.01,.1-.22,.15-.46,.15-.71h0Z"/><path class="b" d="M117.04,24.44h-.31v.95c.08-.18,.18-.34,.31-.48v-.47Z"/></g><g><path class="c" d="M123.84,24.74c.78,0,1.42,.63,1.42,1.42v1.58h-2v.3h2v1.26c.14-.15,.24-.33,.31-.53v-2.6c0-.95-.77-1.72-1.72-1.72-.7,0-1.3,.41-1.57,1.01-.1,.22-.15,.46-.15,.71h0v3.13c.14-.15,.24-.33,.31-.53h0v-2.6h0c0-.78,.63-1.42,1.42-1.42Z"/><path class="c" d="M126.13,28.55v-3.13c-.14,.15-.24,.33-.31,.53h0v2.6h0c0,.78-.63,1.42-1.42,1.42h0c-.78,0-1.42-.63-1.42-1.42v-3.13c-.14,.15-.24,.33-.31,.53v2.6c0,.95,.77,1.72,1.72,1.72h0c.7,0,1.3-.41,1.57-1.01,.1-.22,.15-.46,.15-.71h0Z"/><path class="b" d="M126.13,24.44h-.31v.95c.08-.18,.18-.34,.31-.48v-.47Z"/></g></g><g><g><path class="c" d="M64.94,30.58c.78,0,1.42,.63,1.42,1.42v1.58h-2v.3h2v1.26c.14-.15,.24-.33,.31-.53v-2.6c0-.95-.77-1.72-1.72-1.72-.7,0-1.3,.41-1.57,1.01-.1,.22-.15,.46-.15,.71h0v3.13c.14-.15,.24-.33,.31-.53h0v-2.6h0c0-.78,.63-1.42,1.42-1.42Z"/><path class="c" d="M67.24,34.39v-3.13c-.14,.15-.24,.33-.31,.53h0v2.6h0c0,.78-.63,1.42-1.42,1.42h0c-.78,0-1.42-.63-1.42-1.42v-3.13c-.14,.15-.24,.33-.31,.53v2.6c0,.95,.77,1.72,1.72,1.72h0c.7,0,1.3-.41,1.57-1.01,.1-.22,.15-.46,.15-.71h0Z"/><path class="b" d="M67.24,30.28h-.31v.95c.08-.18,.18-.34,.31-.48v-.47Z"/></g><g><path class="c" d="M74.03,30.58c.78,0,1.42,.63,1.42,1.42v1.58h-2v.3h2v1.26c.14-.15,.24-.33,.31-.53v-2.6c0-.95-.77-1.72-1.72-1.72-.7,0-1.3,.41-1.57,1.01-.1,.22-.15,.46-.15,.71h0v3.13c.14-.15,.24-.33,.31-.53h0v-2.6h0c0-.78,.63-1.42,1.42-1.42Z"/><path class="c" d="M76.33,34.39v-3.13c-.14,.15-.24,.33-.31,.53h0v2.6h0c0,.78-.63,1.42-1.42,1.42h0c-.78,0-1.42-.63-1.42-1.42v-3.13c-.14,.15-.24,.33-.31,.53v2.6c0,.95,.77,1.72,1.72,1.72h0c.7,0,1.3-.41,1.57-1.01,.1-.22,.15-.46,.15-.71h0Z"/><path class="b" d="M76.33,30.28h-.31v.95c.08-.18,.18-.34,.31-.48v-.47Z"/></g><g><path class="c" d="M83.12,30.58c.78,0,1.42,.63,1.42,1.42v1.58h-2v.3h2v1.26c.14-.15,.24-.33,.31-.53v-2.6c0-.95-.77-1.72-1.72-1.72-.7,0-1.3,.41-1.57,1.01-.1,.22-.15,.46-.15,.71h0v3.13c.14-.15,.24-.33,.31-.53h0v-2.6h0c0-.78,.63-1.42,1.42-1.42Z"/><path class="c" d="M85.42,34.39v-3.13c-.14,.15-.24,.33-.31,.53h0v2.6h0c0,.78-.63,1.42-1.42,1.42h0c-.78,0-1.42-.63-1.42-1.42v-3.13c-.14,.15-.24,.33-.31,.53v2.6c0,.95,.77,1.72,1.72,1.72h0c.7,0,1.3-.41,1.57-1.01,.1-.22,.15-.46,.15-.71h0Z"/><path class="b" d="M85.42,30.28h-.31v.95c.08-.18,.18-.34,.31-.48v-.47Z"/></g><g><path class="c" d="M92.21,30.58c.78,0,1.42,.63,1.42,1.42v1.58h-2v.3h2v1.26c.14-.15,.24-.33,.31-.53v-2.6c0-.95-.77-1.72-1.72-1.72-.7,0-1.3,.41-1.57,1.01-.1,.22-.15,.46-.15,.71h0v3.13c.14-.15,.24-.33,.31-.53h0v-2.6h0c0-.78,.63-1.42,1.42-1.42Z"/><path class="c" d="M94.5,34.39v-3.13c-.14,.15-.24,.33-.31,.53h0v2.6h0c0,.78-.63,1.42-1.42,1.42h0c-.78,0-1.42-.63-1.42-1.42v-3.13c-.14,.15-.24,.33-.31,.53v2.6c0,.95,.77,1.72,1.72,1.72h0c.7,0,1.3-.41,1.57-1.01,.1-.22,.15-.46,.15-.71h0Z"/><path class="b" d="M94.5,30.28h-.31v.95c.08-.18,.18-.34,.31-.48v-.47Z"/></g><g><path class="c" d="M101.3,30.58c.78,0,1.42,.63,1.42,1.42v1.58h-2v.3h2v1.26c.14-.15,.24-.33,.31-.53v-2.6c0-.95-.77-1.72-1.72-1.72-.7,0-1.3,.41-1.57,1.01-.1,.22-.15,.46-.15,.71h0v3.13c.14-.15,.24-.33,.31-.53h0v-2.6h0c0-.78,.63-1.42,1.42-1.42Z"/><path class="c" d="M103.59,34.39v-3.13c-.14,.15-.24,.33-.31,.53h0v2.6h0c0,.78-.63,1.42-1.42,1.42h0c-.78,0-1.42-.63-1.42-1.42v-3.13c-.14,.15-.24,.33-.31,.53v2.6c0,.95,.77,1.72,1.72,1.72h0c.7,0,1.3-.41,1.57-1.01,.1-.22,.15-.46,.15-.71h0Z"/><path class="b" d="M103.59,30.28h-.31v.95c.08-.18,.18-.34,.31-.48v-.47Z"/></g><g><path class="c" d="M110.39,30.58c.78,0,1.42,.63,1.42,1.42v1.58h-2v.3h2v1.26c.14-.15,.24-.33,.31-.53v-2.6c0-.95-.77-1.72-1.72-1.72-.7,0-1.3,.41-1.57,1.01-.1,.22-.15,.46-.15,.71h0v3.13c.14-.15,.24-.33,.31-.53h0v-2.6h0c0-.78,.63-1.42,1.42-1.42Z"/><path class="c" d="M112.68,34.39v-3.13c-.14,.15-.24,.33-.31,.53h0v2.6h0c0,.78-.63,1.42-1.42,1.42h0c-.78,0-1.42-.63-1.42-1.42v-3.13c-.14,.15-.24,.33-.31,.53v2.6c0,.95,.77,1.72,1.72,1.72h0c.7,0,1.3-.41,1.57-1.01,.1-.22,.15-.46,.15-.71h0Z"/><path class="b" d="M112.68,30.28h-.31v.95c.08-.18,.18-.34,.31-.48v-.47Z"/></g><g><path class="c" d="M119.48,30.58c.78,0,1.42,.63,1.42,1.42v1.58h-2v.3h2v1.26c.14-.15,.24-.33,.31-.53v-2.6c0-.95-.77-1.72-1.72-1.72-.7,0-1.3,.41-1.57,1.01-.1,.22-.15,.46-.15,.71h0v3.13c.14-.15,.24-.33,.31-.53h0v-2.6h0c0-.78,.63-1.42,1.42-1.42Z"/><path class="c" d="M121.77,34.39v-3.13c-.14,.15-.24,.33-.31,.53h0v2.6h0c0,.78-.63,1.42-1.42,1.42h0c-.78,0-1.42-.63-1.42-1.42v-3.13c-.14,.15-.24,.33-.31,.53v2.6c0,.95,.77,1.72,1.72,1.72h0c.7,0,1.3-.41,1.57-1.01,.1-.22,.15-.46,.15-.71h0Z"/><path class="b" d="M121.77,30.28h-.31v.95c.08-.18,.18-.34,.31-.48v-.47Z"/></g></g></g><g><g><g><path class="c" d="M69.31,36.42c.78,0,1.42,.63,1.42,1.42v1.58h-2v.3h2v1.26c.14-.15,.24-.33,.31-.53v-2.6c0-.95-.77-1.72-1.72-1.72-.7,0-1.3,.41-1.57,1.01-.1,.22-.15,.46-.15,.71h0v3.13c.14-.15,.24-.33,.31-.53h0v-2.6h0c0-.78,.63-1.42,1.42-1.42Z"/><path class="c" d="M71.6,40.23v-3.13c-.14,.15-.24,.33-.31,.53h0v2.6h0c0,.78-.63,1.42-1.42,1.42h0c-.78,0-1.42-.63-1.42-1.42v-3.13c-.14,.15-.24,.33-.31,.53v2.6c0,.95,.77,1.72,1.72,1.72h0c.7,0,1.3-.41,1.57-1.01,.1-.22,.15-.46,.15-.71h0Z"/><path class="b" d="M71.6,36.12h-.31v.95c.08-.18,.18-.34,.31-.48v-.47Z"/></g><g><path class="c" d="M78.39,36.42c.78,0,1.42,.63,1.42,1.42v1.58h-2v.3h2v1.26c.14-.15,.24-.33,.31-.53v-2.6c0-.95-.77-1.72-1.72-1.72-.7,0-1.3,.41-1.57,1.01-.1,.22-.15,.46-.15,.71h0v3.13c.14-.15,.24-.33,.31-.53h0v-2.6h0c0-.78,.63-1.42,1.42-1.42Z"/><path class="c" d="M80.69,40.23v-3.13c-.14,.15-.24,.33-.31,.53h0v2.6h0c0,.78-.63,1.42-1.42,1.42h0c-.78,0-1.42-.63-1.42-1.42v-3.13c-.14,.15-.24,.33-.31,.53v2.6c0,.95,.77,1.72,1.72,1.72h0c.7,0,1.3-.41,1.57-1.01,.1-.22,.15-.46,.15-.71h0Z"/><path class="b" d="M80.69,36.12h-.31v.95c.08-.18,.18-.34,.31-.48v-.47Z"/></g><g><path class="c" d="M87.48,36.42c.78,0,1.42,.63,1.42,1.42v1.58h-2v.3h2v1.26c.14-.15,.24-.33,.31-.53v-2.6c0-.95-.77-1.72-1.72-1.72-.7,0-1.3,.41-1.57,1.01-.1,.22-.15,.46-.15,.71h0v3.13c.14-.15,.24-.33,.31-.53h0v-2.6h0c0-.78,.63-1.42,1.42-1.42Z"/><path class="c" d="M89.78,40.23v-3.13c-.14,.15-.24,.33-.31,.53h0v2.6h0c0,.78-.63,1.42-1.42,1.42h0c-.78,0-1.42-.63-1.42-1.42v-3.13c-.14,.15-.24,.33-.31,.53v2.6c0,.95,.77,1.72,1.72,1.72h0c.7,0,1.3-.41,1.57-1.01,.1-.22,.15-.46,.15-.71h0Z"/><path class="b" d="M89.78,36.12h-.31v.95c.08-.18,.18-.34,.31-.48v-.47Z"/></g><g><path class="c" d="M96.57,36.42c.78,0,1.42,.63,1.42,1.42v1.58h-2v.3h2v1.26c.14-.15,.24-.33,.31-.53v-2.6c0-.95-.77-1.72-1.72-1.72-.7,0-1.3,.41-1.57,1.01-.1,.22-.15,.46-.15,.71h0v3.13c.14-.15,.24-.33,.31-.53h0v-2.6h0c0-.78,.63-1.42,1.42-1.42Z"/><path class="c" d="M98.87,40.23v-3.13c-.14,.15-.24,.33-.31,.53h0v2.6h0c0,.78-.63,1.42-1.42,1.42h0c-.78,0-1.42-.63-1.42-1.42v-3.13c-.14,.15-.24,.33-.31,.53v2.6c0,.95,.77,1.72,1.72,1.72h0c.7,0,1.3-.41,1.57-1.01,.1-.22,.15-.46,.15-.71h0Z"/><path class="b" d="M98.87,36.12h-.31v.95c.08-.18,.18-.34,.31-.48v-.47Z"/></g><g><path class="c" d="M105.66,36.42c.78,0,1.42,.63,1.42,1.42v1.58h-2v.3h2v1.26c.14-.15,.24-.33,.31-.53v-2.6c0-.95-.77-1.72-1.72-1.72-.7,0-1.3,.41-1.57,1.01-.1,.22-.15,.46-.15,.71h0v3.13c.14-.15,.24-.33,.31-.53h0v-2.6h0c0-.78,.63-1.42,1.42-1.42Z"/><path class="c" d="M107.95,40.23v-3.13c-.14,.15-.24,.33-.31,.53h0v2.6h0c0,.78-.63,1.42-1.42,1.42h0c-.78,0-1.42-.63-1.42-1.42v-3.13c-.14,.15-.24,.33-.31,.53v2.6c0,.95,.77,1.72,1.72,1.72h0c.7,0,1.3-.41,1.57-1.01,.1-.22,.15-.46,.15-.71h0Z"/><path class="b" d="M107.95,36.12h-.31v.95c.08-.18,.18-.34,.31-.48v-.47Z"/></g><g><path class="c" d="M114.75,36.42c.78,0,1.42,.63,1.42,1.42v1.58h-2v.3h2v1.26c.14-.15,.24-.33,.31-.53v-2.6c0-.95-.77-1.72-1.72-1.72-.7,0-1.3,.41-1.57,1.01-.1,.22-.15,.46-.15,.71h0v3.13c.14-.15,.24-.33,.31-.53h0v-2.6h0c0-.78,.63-1.42,1.42-1.42Z"/><path class="c" d="M117.04,40.23v-3.13c-.14,.15-.24,.33-.31,.53h0v2.6h0c0,.78-.63,1.42-1.42,1.42h0c-.78,0-1.42-.63-1.42-1.42v-3.13c-.14,.15-.24,.33-.31,.53v2.6c0,.95,.77,1.72,1.72,1.72h0c.7,0,1.3-.41,1.57-1.01,.1-.22,.15-.46,.15-.71h0Z"/><path class="b" d="M117.04,36.12h-.31v.95c.08-.18,.18-.34,.31-.48v-.47Z"/></g><g><path class="c" d="M123.84,36.42c.78,0,1.42,.63,1.42,1.42v1.58h-2v.3h2v1.26c.14-.15,.24-.33,.31-.53v-2.6c0-.95-.77-1.72-1.72-1.72-.7,0-1.3,.41-1.57,1.01-.1,.22-.15,.46-.15,.71h0v3.13c.14-.15,.24-.33,.31-.53h0v-2.6h0c0-.78,.63-1.42,1.42-1.42Z"/><path class="c" d="M126.13,40.23v-3.13c-.14,.15-.24,.33-.31,.53h0v2.6h0c0,.78-.63,1.42-1.42,1.42h0c-.78,0-1.42-.63-1.42-1.42v-3.13c-.14,.15-.24,.33-.31,.53v2.6c0,.95,.77,1.72,1.72,1.72h0c.7,0,1.3-.41,1.57-1.01,.1-.22,.15-.46,.15-.71h0Z"/><path class="b" d="M126.13,36.12h-.31v.95c.08-.18,.18-.34,.31-.48v-.47Z"/></g></g><g><g><path class="c" d="M64.94,42.26c.78,0,1.42,.63,1.42,1.42v1.58h-2v.3h2v1.26c.14-.15,.24-.33,.31-.53v-2.6c0-.95-.77-1.72-1.72-1.72-.7,0-1.3,.41-1.57,1.01-.1,.22-.15,.46-.15,.71h0v3.13c.14-.15,.24-.33,.31-.53h0v-2.6h0c0-.78,.63-1.42,1.42-1.42Z"/><path class="c" d="M67.24,46.07v-3.13c-.14,.15-.24,.33-.31,.53h0v2.6h0c0,.78-.63,1.42-1.42,1.42h0c-.78,0-1.42-.63-1.42-1.42v-3.13c-.14,.15-.24,.33-.31,.53v2.6c0,.95,.77,1.72,1.72,1.72h0c.7,0,1.3-.41,1.57-1.01,.1-.22,.15-.46,.15-.71h0Z"/><path class="b" d="M67.24,41.95h-.31v.95c.08-.18,.18-.34,.31-.48v-.47Z"/></g><g><path class="c" d="M74.03,42.26c.78,0,1.42,.63,1.42,1.42v1.58h-2v.3h2v1.26c.14-.15,.24-.33,.31-.53v-2.6c0-.95-.77-1.72-1.72-1.72-.7,0-1.3,.41-1.57,1.01-.1,.22-.15,.46-.15,.71h0v3.13c.14-.15,.24-.33,.31-.53h0v-2.6h0c0-.78,.63-1.42,1.42-1.42Z"/><path class="c" d="M76.33,46.07v-3.13c-.14,.15-.24,.33-.31,.53h0v2.6h0c0,.78-.63,1.42-1.42,1.42h0c-.78,0-1.42-.63-1.42-1.42v-3.13c-.14,.15-.24,.33-.31,.53v2.6c0,.95,.77,1.72,1.72,1.72h0c.7,0,1.3-.41,1.57-1.01,.1-.22,.15-.46,.15-.71h0Z"/><path class="b" d="M76.33,41.95h-.31v.95c.08-.18,.18-.34,.31-.48v-.47Z"/></g><g><path class="c" d="M83.12,42.26c.78,0,1.42,.63,1.42,1.42v1.58h-2v.3h2v1.26c.14-.15,.24-.33,.31-.53v-2.6c0-.95-.77-1.72-1.72-1.72-.7,0-1.3,.41-1.57,1.01-.1,.22-.15,.46-.15,.71h0v3.13c.14-.15,.24-.33,.31-.53h0v-2.6h0c0-.78,.63-1.42,1.42-1.42Z"/><path class="c" d="M85.42,46.07v-3.13c-.14,.15-.24,.33-.31,.53h0v2.6h0c0,.78-.63,1.42-1.42,1.42h0c-.78,0-1.42-.63-1.42-1.42v-3.13c-.14,.15-.24,.33-.31,.53v2.6c0,.95,.77,1.72,1.72,1.72h0c.7,0,1.3-.41,1.57-1.01,.1-.22,.15-.46,.15-.71h0Z"/><path class="b" d="M85.42,41.95h-.31v.95c.08-.18,.18-.34,.31-.48v-.47Z"/></g><g><path class="c" d="M92.21,42.26c.78,0,1.42,.63,1.42,1.42v1.58h-2v.3h2v1.26c.14-.15,.24-.33,.31-.53v-2.6c0-.95-.77-1.72-1.72-1.72-.7,0-1.3,.41-1.57,1.01-.1,.22-.15,.46-.15,.71h0v3.13c.14-.15,.24-.33,.31-.53h0v-2.6h0c0-.78,.63-1.42,1.42-1.42Z"/><path class="c" d="M94.5,46.07v-3.13c-.14,.15-.24,.33-.31,.53h0v2.6h0c0,.78-.63,1.42-1.42,1.42h0c-.78,0-1.42-.63-1.42-1.42v-3.13c-.14,.15-.24,.33-.31,.53v2.6c0,.95,.77,1.72,1.72,1.72h0c.7,0,1.3-.41,1.57-1.01,.1-.22,.15-.46,.15-.71h0Z"/><path class="b" d="M94.5,41.95h-.31v.95c.08-.18,.18-.34,.31-.48v-.47Z"/></g><g><path class="c" d="M101.3,42.26c.78,0,1.42,.63,1.42,1.42v1.58h-2v.3h2v1.26c.14-.15,.24-.33,.31-.53v-2.6c0-.95-.77-1.72-1.72-1.72-.7,0-1.3,.41-1.57,1.01-.1,.22-.15,.46-.15,.71h0v3.13c.14-.15,.24-.33,.31-.53h0v-2.6h0c0-.78,.63-1.42,1.42-1.42Z"/><path class="c" d="M103.59,46.07v-3.13c-.14,.15-.24,.33-.31,.53h0v2.6h0c0,.78-.63,1.42-1.42,1.42h0c-.78,0-1.42-.63-1.42-1.42v-3.13c-.14,.15-.24,.33-.31,.53v2.6c0,.95,.77,1.72,1.72,1.72h0c.7,0,1.3-.41,1.57-1.01,.1-.22,.15-.46,.15-.71h0Z"/><path class="b" d="M103.59,41.95h-.31v.95c.08-.18,.18-.34,.31-.48v-.47Z"/></g><g><path class="c" d="M110.39,42.26c.78,0,1.42,.63,1.42,1.42v1.58h-2v.3h2v1.26c.14-.15,.24-.33,.31-.53v-2.6c0-.95-.77-1.72-1.72-1.72-.7,0-1.3,.41-1.57,1.01-.1,.22-.15,.46-.15,.71h0v3.13c.14-.15,.24-.33,.31-.53h0v-2.6h0c0-.78,.63-1.42,1.42-1.42Z"/><path class="c" d="M112.68,46.07v-3.13c-.14,.15-.24,.33-.31,.53h0v2.6h0c0,.78-.63,1.42-1.42,1.42h0c-.78,0-1.42-.63-1.42-1.42v-3.13c-.14,.15-.24,.33-.31,.53v2.6c0,.95,.77,1.72,1.72,1.72h0c.7,0,1.3-.41,1.57-1.01,.1-.22,.15-.46,.15-.71h0Z"/><path class="b" d="M112.68,41.95h-.31v.95c.08-.18,.18-.34,.31-.48v-.47Z"/></g><g><path class="c" d="M119.48,42.26c.78,0,1.42,.63,1.42,1.42v1.58h-2v.3h2v1.26c.14-.15,.24-.33,.31-.53v-2.6c0-.95-.77-1.72-1.72-1.72-.7,0-1.3,.41-1.57,1.01-.1,.22-.15,.46-.15,.71h0v3.13c.14-.15,.24-.33,.31-.53h0v-2.6h0c0-.78,.63-1.42,1.42-1.42Z"/><path class="c" d="M121.77,46.07v-3.13c-.14,.15-.24,.33-.31,.53h0v2.6h0c0,.78-.63,1.42-1.42,1.42h0c-.78,0-1.42-.63-1.42-1.42v-3.13c-.14,.15-.24,.33-.31,.53v2.6c0,.95,.77,1.72,1.72,1.72h0c.7,0,1.3-.41,1.57-1.01,.1-.22,.15-.46,.15-.71h0Z"/><path class="b" d="M121.77,41.95h-.31v.95c.08-.18,.18-.34,.31-.48v-.47Z"/></g></g></g></svg>